<svg width="24" height="24" viewBox="0 0 24 24" fill="none" xmlns="http://www.w3.org/2000/svg">
<path d="M15.5 10H15V7.5C15 6.70435 14.6839 5.94129 14.1213 5.37868C13.5587 4.81607 12.7956 4.5 12 4.5C11.2044 4.5 10.4413 4.81607 9.87868 5.37868C9.31607 5.94129 9 6.70435 9 7.5V10H8.5C7.96974 10.0006 7.46137 10.2115 7.08643 10.5864C6.71148 10.9614 6.50058 11.4697 6.5 12V17.5C6.50058 18.0303 6.71148 18.5386 7.08643 18.9136C7.46137 19.2885 7.96974 19.4994 8.5 19.5H15.5C16.0303 19.4994 16.5386 19.2885 16.9136 18.9136C17.2885 18.5386 17.4994 18.0303 17.5 17.5V12C17.4994 11.4697 17.2885 10.9614 16.9136 10.5864C16.5386 10.2115 16.0303 10.0006 15.5 10ZM14 10H10V7.5C10 6.96957 10.2107 6.46086 10.5858 6.08579C10.9609 5.71071 11.4696 5.5 12 5.5C12.5304 5.5 13.0391 5.71071 13.4142 6.08579C13.7893 6.46086 14 6.96957 14 7.5V10Z" fill="white"/>
</svg>
