<svg width="55" height="55" viewBox="0 0 55 55" fill="none" xmlns="http://www.w3.org/2000/svg">
<path d="M29.9227 17.0289C32.16 14.7915 35.7875 14.7915 38.0249 17.0289C40.2622 19.2663 40.2622 22.8938 38.0249 25.1311C35.7875 27.3685 32.16 27.3685 29.9227 25.1311C27.6853 22.8938 27.6853 19.2663 29.9227 17.0289ZM35.5941 19.4596C34.6992 18.5646 33.2483 18.5646 32.3532 19.4596C31.4583 20.3545 31.4583 21.8055 32.3532 22.7005C33.2483 23.5955 34.6992 23.5955 35.5941 22.7005C36.4892 21.8055 36.4892 20.3545 35.5941 19.4596ZM49.2905 9.90499C48.6745 7.92316 47.1223 6.37161 45.1403 5.75648L43.6229 5.28561C38.1378 3.58329 32.1612 5.06009 28.0999 9.12117L25.8178 11.4034C22.6788 9.0461 18.203 9.29552 15.3469 12.1517L12.4994 14.9991C11.8282 15.6703 11.8282 16.7586 12.4994 17.4298L16.1454 21.0758L15.7333 21.4879C14.1671 23.054 14.1671 25.5934 15.7333 27.1595L16.8685 28.2946L13.6703 30.1187C13.2048 30.3841 12.8897 30.8516 12.8184 31.3828C12.747 31.914 12.9276 32.448 13.3065 32.827L22.2191 41.7395C22.5977 42.1181 23.1313 42.2987 23.6621 42.2279C24.193 42.1569 24.6603 41.8424 24.9264 41.3777L26.7549 38.181L27.8943 39.3202C29.4604 40.8866 31.9996 40.8866 33.5657 39.3202L33.9709 38.9153L37.6137 42.5581C38.285 43.2291 39.3733 43.2291 40.0445 42.5581L42.8919 39.7105C45.7469 36.8555 45.9973 32.382 43.6429 29.2433L45.9297 26.9562C49.9924 22.8937 51.4687 16.914 49.7635 11.4274L49.2905 9.90499ZM44.1214 9.0395C45.0222 9.3191 45.7278 10.0244 46.0079 10.9252L46.4809 12.4476C47.8071 16.7149 46.6589 21.3658 43.4992 24.5257L31.1352 36.8897C30.9113 37.1133 30.5485 37.1133 30.3249 36.8897L18.164 24.7287C17.9403 24.5051 17.9403 24.1423 18.164 23.9186L30.5307 11.5519C33.6893 8.39325 38.3379 7.24462 42.6041 8.56863L44.1214 9.0395ZM41.1677 31.7185C42.2046 33.4733 41.9693 35.7718 40.4611 37.28L38.829 38.9121L36.4017 36.4845L41.1677 31.7185ZM17.7776 14.5824C19.2866 13.0733 21.5875 12.8386 23.3428 13.8783L18.5761 18.6451L16.1454 16.2145L17.7776 14.5824ZM24.2357 35.6618L23.0594 37.7184L17.3297 31.989L19.3885 30.8147L24.2357 35.6618ZM15.3309 42.1534C16.0021 41.4822 16.0021 40.3939 15.3309 39.7226C14.6596 39.0514 13.5714 39.0514 12.9002 39.7226L7.2286 45.3943C6.55739 46.0655 6.55739 47.1538 7.2286 47.8251C7.89983 48.4963 8.98807 48.4963 9.65928 47.8251L15.3309 42.1534ZM10.8745 35.2665C11.5458 35.9377 11.5458 37.026 10.8745 37.6973L8.44387 40.1278C7.77264 40.799 6.68439 40.799 6.01319 40.1278C5.34196 39.4566 5.34196 38.3683 6.01319 37.6973L8.44387 35.2665C9.11507 34.5953 10.2033 34.5953 10.8745 35.2665ZM19.7825 46.6144C20.4537 45.9431 20.4537 44.8551 19.7825 44.1838C19.1113 43.5126 18.023 43.5126 17.3518 44.1838L14.9258 46.6096C14.2546 47.2808 14.2546 48.3691 14.9258 49.0403C15.597 49.7116 16.6853 49.7116 17.3565 49.0403L19.7825 46.6144Z" fill="#AD475C"/>
</svg>
