<svg width="56" height="55" viewBox="0 0 56 55" fill="none" xmlns="http://www.w3.org/2000/svg">
<path d="M20.7181 6.875H35.6139C36.4841 6.875 37.2032 7.52159 37.3171 8.36053L37.3327 8.59375V16.0417H41.3431C45.4564 16.0417 48.791 19.3762 48.791 23.4896V38.3854C48.791 42.4987 45.4564 45.8333 41.3431 45.8333H14.9889C10.8756 45.8333 7.54102 42.4987 7.54102 38.3854V23.4896C7.54102 19.3762 10.8756 16.0417 14.9889 16.0417H18.9993V8.59375C18.9993 7.7236 19.6459 7.0045 20.4849 6.8907L20.7181 6.875ZM41.3431 19.4792H14.9889C12.774 19.4792 10.9785 21.2747 10.9785 23.4896V38.3854C10.9785 40.6003 12.774 42.3958 14.9889 42.3958H41.3431C43.558 42.3958 45.3535 40.6003 45.3535 38.3854V23.4896C45.3535 21.2747 43.558 19.4792 41.3431 19.4792ZM33.8952 10.3125H22.4368V16.0417H33.8952V10.3125Z" fill="#AD475C"/>
</svg>
