<svg width="56" height="55" viewBox="0 0 56 55" fill="none" xmlns="http://www.w3.org/2000/svg">
<path d="M46.1545 9.38879C45.973 6.70573 43.7391 4.58557 41.0102 4.58557H14.6562L14.3032 4.59747C11.6202 4.77887 9.5 7.01274 9.5 9.74182V45.2581L9.51189 45.6113C9.69332 48.2943 11.9272 50.4144 14.6562 50.4144H31.9984L28.5639 46.9769H14.6562L14.423 46.9613C13.5841 46.8474 12.9375 46.1283 12.9375 45.2581V9.74182L12.9532 9.5086C13.067 8.66966 13.7861 8.02307 14.6562 8.02307H41.0102L41.2432 8.03875C42.0822 8.15257 42.7289 8.87168 42.7289 9.74182V36.2491L45.3845 33.5935C45.6284 33.3497 45.8903 33.1354 46.1664 32.9507V9.74182L46.1545 9.38879ZM37.6591 50.4144C37.63 50.416 37.6009 50.4167 37.5718 50.4167C37.5429 50.4167 37.514 50.416 37.4854 50.4144C37.061 50.3931 36.6581 50.2148 36.3563 49.9127L30.6278 44.1794C29.957 43.508 29.9575 42.4197 30.6289 41.7487C31.3004 41.0777 32.3887 41.0781 33.0597 41.7498L37.5727 46.2667L47.8153 36.0243C48.4863 35.3531 49.5746 35.3531 50.2458 36.0243C50.9171 36.6955 50.9171 37.7836 50.2458 38.4548L38.7875 49.9132C38.4857 50.215 38.0833 50.3931 37.6591 50.4144ZM32.053 37.8125C31.9136 37.807 31.7739 37.807 31.6345 37.8125H26.1056C25.1564 37.8125 24.3869 37.0429 24.3869 36.0937C24.3869 35.1445 25.1564 34.375 26.1056 34.375H37.5727C38.5221 34.375 39.2914 35.1445 39.2914 36.0937C39.2914 37.0429 38.5221 37.8125 37.5727 37.8125H32.053ZM20.9583 17.7641C20.9583 19.0298 19.9323 20.0558 18.6667 20.0558C17.401 20.0558 16.375 19.0298 16.375 17.7641C16.375 16.4985 17.401 15.4725 18.6667 15.4725C19.9323 15.4725 20.9583 16.4985 20.9583 17.7641ZM24.3869 17.7604C24.3869 16.8112 25.1564 16.0417 26.1056 16.0417H37.5727C38.5221 16.0417 39.2914 16.8112 39.2914 17.7604C39.2914 18.7097 38.5221 19.4792 37.5727 19.4792H26.1056C25.1564 19.4792 24.3869 18.7097 24.3869 17.7604ZM26.1056 25.2083C25.1564 25.2083 24.3869 25.9779 24.3869 26.9271C24.3869 27.8763 25.1564 28.6458 26.1056 28.6458H37.5727C38.5221 28.6458 39.2914 27.8763 39.2914 26.9271C39.2914 25.9779 38.5221 25.2083 37.5727 25.2083H26.1056ZM18.6667 29.2187C19.9323 29.2187 20.9583 28.1928 20.9583 26.9271C20.9583 25.6614 19.9323 24.6354 18.6667 24.6354C17.401 24.6354 16.375 25.6614 16.375 26.9271C16.375 28.1928 17.401 29.2187 18.6667 29.2187ZM20.9583 36.0892C20.9583 37.3548 19.9323 38.3808 18.6667 38.3808C17.401 38.3808 16.375 37.3548 16.375 36.0892C16.375 34.8235 17.401 33.7975 18.6667 33.7975C19.9323 33.7975 20.9583 34.8235 20.9583 36.0892Z" fill="#AD475C"/>
</svg>
