<svg width="55" height="55" viewBox="0 0 55 55" fill="none" xmlns="http://www.w3.org/2000/svg">
<path d="M35.5208 31.5104C35.5208 30.5612 36.2904 29.7917 37.2396 29.7917H41.8229C42.7721 29.7917 43.5417 30.5612 43.5417 31.5104C43.5417 32.4596 42.7721 33.2292 41.8229 33.2292H37.2396C36.2904 33.2292 35.5208 32.4596 35.5208 31.5104ZM6.875 11.4583H6.90646C7.19146 8.88023 9.37718 6.875 12.0312 6.875H38.3854C41.233 6.875 43.5417 9.18353 43.5417 12.0312V13.9493C46.8263 14.7252 49.2708 17.6761 49.2708 21.1979V40.6771C49.2708 44.7904 45.9362 48.125 41.8229 48.125H14.3229C10.2096 48.125 6.875 44.7904 6.875 40.6771V11.4583ZM41.8229 17.1875H10.3125V40.6771C10.3125 42.892 12.108 44.6875 14.3229 44.6875H41.8229C44.0378 44.6875 45.8333 42.892 45.8333 40.6771V21.1979C45.8333 18.983 44.0378 17.1875 41.8229 17.1875ZM40.1042 13.75V12.0312C40.1042 11.082 39.3346 10.3125 38.3854 10.3125H12.0312C11.082 10.3125 10.3125 11.082 10.3125 12.0312C10.3125 12.9805 11.082 13.75 12.0312 13.75H40.1042Z" fill="#AD475C"/>
</svg>
