<svg width="56" height="55" viewBox="0 0 56 55" fill="none" xmlns="http://www.w3.org/2000/svg">
<path d="M43.6828 18.0469C43.3681 22.4157 40.1271 25.7812 36.593 25.7812C33.0588 25.7812 29.8125 22.4168 29.5031 18.0469C29.1808 13.5019 32.3358 10.3125 36.593 10.3125C40.8501 10.3125 44.0051 13.5846 43.6828 18.0469Z" stroke="#AD475C" stroke-width="3" stroke-linecap="round" stroke-linejoin="round"/>
<path d="M36.5933 32.6562C29.5926 32.6562 22.8605 36.1335 21.174 42.9054C20.9506 43.8013 21.5124 44.6875 22.433 44.6875H50.7547C51.6754 44.6875 52.2339 43.8013 52.0137 42.9054C50.3272 36.025 43.5951 32.6562 36.5933 32.6562Z" stroke="#AD475C" stroke-width="3" stroke-miterlimit="10"/>
<path d="M21.9846 19.974C21.7332 23.4631 19.1143 26.2109 16.2912 26.2109C13.4682 26.2109 10.845 23.4642 10.5979 19.974C10.3412 16.3442 12.8903 13.75 16.2912 13.75C19.6922 13.75 22.2413 16.4108 21.9846 19.974Z" stroke="#AD475C" stroke-width="3" stroke-linecap="round" stroke-linejoin="round"/>
<path d="M22.628 32.8711C20.689 31.9827 18.5535 31.6411 16.2901 31.6411C10.7042 31.6411 5.32234 34.418 3.9742 39.8267C3.79695 40.5421 4.24597 41.25 4.98074 41.25H17.0421" stroke="#AD475C" stroke-width="3" stroke-miterlimit="10" stroke-linecap="round"/>
</svg>
