<svg width="25" height="24" viewBox="0 0 25 24" fill="none" xmlns="http://www.w3.org/2000/svg">
<path d="M21.5934 6C21.2582 6.00011 20.9277 6.07836 20.628 6.22853C20.3284 6.37871 20.0678 6.59667 19.8671 6.86512C19.6664 7.13358 19.5311 7.44512 19.4718 7.77503C19.4125 8.10493 19.431 8.44411 19.5257 8.76563L16.1803 12.1106C15.7391 11.9637 15.2621 11.9637 14.8209 12.1106L12.3407 9.63047C12.4224 9.31201 12.4301 8.9791 12.3633 8.6572C12.2965 8.3353 12.157 8.03293 11.9555 7.77321C11.7539 7.51349 11.4956 7.3033 11.2004 7.1587C10.9051 7.0141 10.5807 6.93893 10.252 6.93893C9.92324 6.93893 9.59884 7.0141 9.30359 7.1587C9.00835 7.3033 8.75007 7.51349 8.54852 7.77321C8.34697 8.03293 8.20747 8.3353 8.14069 8.6572C8.07391 8.9791 8.08163 9.31201 8.16324 9.63047L4.01527 13.7756C3.55476 13.6393 3.06194 13.6604 2.61473 13.8354C2.16752 14.0105 1.79141 14.3297 1.54586 14.7424C1.30031 15.1552 1.19932 15.638 1.25885 16.1145C1.31839 16.5911 1.53505 17.0342 1.87459 17.3739C2.21414 17.7136 2.6572 17.9304 3.13374 17.99C3.61029 18.0497 4.09313 17.9489 4.50596 17.7035C4.91879 17.4581 5.23805 17.0821 5.41328 16.6349C5.58851 16.1877 5.60972 15.6949 5.47355 15.2344L9.56902 11.1394C10.0102 11.2864 10.4872 11.2864 10.9284 11.1394L13.409 13.62C13.3274 13.9385 13.3197 14.2714 13.3865 14.5933C13.4532 14.9152 13.5927 15.2175 13.7943 15.4773C13.9959 15.737 14.2541 15.9472 14.5494 16.0918C14.8446 16.2364 15.169 16.3115 15.4978 16.3115C15.8265 16.3115 16.1509 16.2364 16.4462 16.0918C16.7414 15.9472 16.9997 15.737 17.2012 15.4773C17.4028 15.2175 17.5423 14.9152 17.6091 14.5933C17.6758 14.2714 17.6681 13.9385 17.5865 13.62L20.984 10.2244C21.2806 10.3119 21.5926 10.3346 21.8987 10.2909C22.2049 10.2472 22.498 10.1382 22.7583 9.97122C23.0186 9.80426 23.24 9.58326 23.4073 9.32322C23.5747 9.06318 23.6842 8.77018 23.7283 8.46411C23.7725 8.15803 23.7503 7.84604 23.6632 7.5493C23.5762 7.25256 23.4263 6.97802 23.2238 6.7443C23.0213 6.51057 22.7709 6.32314 22.4896 6.19472C22.2083 6.0663 21.9026 5.99989 21.5934 6Z" fill="white"/>
</svg>
