<svg width="30" height="31" viewBox="0 0 30 31" fill="none" xmlns="http://www.w3.org/2000/svg">
<rect width="30" height="30" transform="translate(0 0.536377)" fill="white"/>
<path d="M11.1957 22.7238C10.9559 22.7234 10.7203 22.6605 10.5121 22.5414C10.0434 22.2758 9.75195 21.7602 9.75195 21.2004V9.87226C9.75195 9.31093 10.0434 8.79687 10.5121 8.53125C10.7252 8.40876 10.9674 8.34577 11.2131 8.34886C11.4589 8.35196 11.6994 8.42102 11.9094 8.54882L21.591 14.3441C21.7928 14.4707 21.9591 14.6463 22.0744 14.8547C22.1897 15.0631 22.2502 15.2974 22.2502 15.5355C22.2502 15.7737 22.1897 16.008 22.0744 16.2163C21.9591 16.4247 21.7928 16.6004 21.591 16.7269L11.9078 22.5238C11.6929 22.6537 11.4468 22.7229 11.1957 22.7238V22.7238Z" fill="#161616"/>
</svg>
