<svg width="130" height="39" viewBox="0 0 130 39" fill="none" xmlns="http://www.w3.org/2000/svg">
<path d="M129.068 34.3865C129.068 36.4496 127.418 38.1207 125.376 38.1207H4.55424C2.51372 38.1207 0.857422 36.4496 0.857422 34.3865V4.60704C0.857422 2.54492 2.51372 0.86792 4.55424 0.86792H125.375C127.418 0.86792 129.067 2.54492 129.067 4.60704L129.068 34.3865Z" fill="white"/>
<path d="M29.0124 19.2891C28.9845 16.1466 31.5536 14.6178 31.6711 14.5467C30.2161 12.3987 27.9608 12.1053 27.1683 12.0819C25.2742 11.88 23.4368 13.2294 22.4719 13.2294C21.4878 13.2294 20.0019 12.1014 18.4005 12.1345C16.3398 12.1667 14.4119 13.3747 13.3546 15.2506C11.1725 19.0755 12.7999 24.6964 14.8905 27.7881C15.9363 29.3023 17.1583 30.993 18.7578 30.9335C20.3226 30.8682 20.9071 29.9234 22.7955 29.9234C24.6665 29.9234 25.2154 30.9335 26.8467 30.8955C28.5261 30.8682 29.5834 29.3745 30.5926 27.8466C31.8011 26.1111 32.2865 24.402 32.3057 24.3142C32.2662 24.3006 29.0442 23.0555 29.0124 19.2891Z" fill="#222222"/>
<path d="M25.931 10.0481C26.7727 8.98238 27.3485 7.53255 27.1887 6.06128C25.9705 6.11588 24.4471 6.9144 23.5698 7.95668C22.7937 8.87513 22.1004 10.3805 22.2795 11.7962C23.6478 11.8996 25.0528 11.0972 25.931 10.0481Z" fill="#222222"/>
<path d="M51.6587 30.7165H49.4718L48.2739 26.9052H44.1101L42.969 30.7165H40.8398L44.9652 17.7412H47.5132L51.6587 30.7165ZM47.9128 25.3062L46.8295 21.9181C46.7149 21.572 46.5001 20.7569 46.1833 19.4738H46.1448C46.0187 20.0256 45.8155 20.8407 45.5362 21.9181L44.4721 25.3062H47.9128Z" fill="#222222"/>
<path d="M62.2679 25.9235C62.2679 27.5147 61.8432 28.7725 60.9939 29.6958C60.2331 30.5177 59.2885 30.9282 58.1608 30.9282C56.9437 30.9282 56.0693 30.4856 55.5368 29.6003H55.4983V34.5289H53.4452V24.4406C53.4452 23.4402 53.4192 22.4135 53.3691 21.3605H55.1747L55.2893 22.8435H55.3278C56.0125 21.7262 57.0515 21.1685 58.4459 21.1685C59.536 21.1685 60.446 21.6043 61.174 22.4769C61.9039 23.3505 62.2679 24.4991 62.2679 25.9235ZM60.1763 25.9996C60.1763 25.0889 59.9741 24.3382 59.5677 23.7473C59.1238 23.1311 58.5277 22.823 57.7805 22.823C57.274 22.823 56.8137 22.9946 56.4025 23.333C55.9903 23.6742 55.7207 24.1198 55.5945 24.6716C55.531 24.929 55.4992 25.1396 55.4992 25.3054V26.8654C55.4992 27.5459 55.7053 28.1202 56.1174 28.5892C56.5296 29.0582 57.065 29.2922 57.7237 29.2922C58.4969 29.2922 59.0988 28.9899 59.5292 28.3874C59.9606 27.7838 60.1763 26.9882 60.1763 25.9996Z" fill="#222222"/>
<path d="M72.8958 25.9235C72.8958 27.5147 72.4712 28.7725 71.6209 29.6958C70.8611 30.5177 69.9164 30.9282 68.7888 30.9282C67.5716 30.9282 66.6972 30.4856 66.1657 29.6003H66.1272V34.5289H64.0741V24.4406C64.0741 23.4402 64.0481 22.4135 63.998 21.3605H65.8036L65.9182 22.8435H65.9567C66.6404 21.7262 67.6795 21.1685 69.0748 21.1685C70.1639 21.1685 71.0739 21.6043 71.8038 22.4769C72.5309 23.3505 72.8958 24.4991 72.8958 25.9235ZM70.8043 25.9996C70.8043 25.0889 70.6011 24.3382 70.1947 23.7473C69.7508 23.1311 69.1566 22.823 68.4084 22.823C67.9009 22.823 67.4416 22.9946 67.0295 23.333C66.6173 23.6742 66.3486 24.1198 66.2225 24.6716C66.1599 24.929 66.1272 25.1396 66.1272 25.3054V26.8654C66.1272 27.5459 66.3332 28.1202 66.7435 28.5892C67.1556 29.0572 67.691 29.2922 68.3516 29.2922C69.1249 29.2922 69.7267 28.9899 70.1572 28.3874C70.5886 27.7838 70.8043 26.9882 70.8043 25.9996Z" fill="#222222"/>
<path d="M84.7793 27.078C84.7793 28.1817 84.4009 29.0797 83.6411 29.7729C82.8062 30.5305 81.6439 30.9088 80.1504 30.9088C78.7714 30.9088 77.6659 30.6397 76.8291 30.1005L77.3048 28.3679C78.2061 28.9198 79.1951 29.1967 80.2727 29.1967C81.0459 29.1967 81.6478 29.0192 82.0801 28.6663C82.5106 28.3133 82.7253 27.8395 82.7253 27.2486C82.7253 26.7221 82.5481 26.2785 82.1928 25.9187C81.8394 25.5589 81.2491 25.2245 80.4248 24.9154C78.1811 24.0682 77.0602 22.827 77.0602 21.1948C77.0602 20.1282 77.4531 19.2536 78.2398 18.5731C79.0237 17.8915 80.0695 17.5513 81.3772 17.5513C82.5433 17.5513 83.5121 17.757 84.2853 18.1675L83.7721 19.862C83.0498 19.4642 82.2332 19.2653 81.3194 19.2653C80.5972 19.2653 80.0329 19.4457 79.6284 19.8045C79.2866 20.1253 79.1152 20.5162 79.1152 20.9794C79.1152 21.4922 79.3107 21.9163 79.7035 22.2498C80.0454 22.5579 80.6665 22.8913 81.5678 23.2511C82.6704 23.7006 83.4803 24.2261 84.0013 24.8287C84.5203 25.4293 84.7793 26.181 84.7793 27.078Z" fill="#222222"/>
<path d="M91.567 22.9208H89.304V27.4633C89.304 28.6187 89.7027 29.1959 90.502 29.1959C90.8689 29.1959 91.1732 29.1637 91.4139 29.0993L91.4707 30.6779C91.0663 30.8309 90.5338 30.908 89.8741 30.908C89.0633 30.908 88.4297 30.6574 87.9723 30.1572C87.5168 29.6561 87.2876 28.8156 87.2876 27.6349V22.9188H85.9395V21.3588H87.2876V19.6457L89.304 19.0295V21.3588H91.567V22.9208Z" fill="#222222"/>
<path d="M101.777 25.9616C101.777 27.3997 101.371 28.5804 100.56 29.5037C99.71 30.4544 98.5814 30.9282 97.1745 30.9282C95.8186 30.9282 94.7392 30.4729 93.9341 29.5622C93.1291 28.6516 92.7266 27.5021 92.7266 26.1166C92.7266 24.6668 93.1406 23.4792 93.9717 22.5559C94.8008 21.6316 95.9197 21.1694 97.3266 21.1694C98.6825 21.1694 99.7735 21.6248 100.597 22.5364C101.385 23.4207 101.777 24.5624 101.777 25.9616ZM99.6474 26.0288C99.6474 25.166 99.4654 24.4259 99.0966 23.8088C98.6661 23.0619 98.0508 22.6895 97.2534 22.6895C96.4282 22.6895 95.8013 23.0629 95.3709 23.8088C95.002 24.4269 94.82 25.1786 94.82 26.0678C94.82 26.9307 95.002 27.6707 95.3709 28.2869C95.8148 29.0338 96.4349 29.4062 97.2352 29.4062C98.019 29.4062 98.6343 29.026 99.0783 28.2674C99.4567 27.6386 99.6474 26.8907 99.6474 26.0288Z" fill="#222222"/>
<path d="M108.451 23.1887C108.248 23.1506 108.031 23.1311 107.804 23.1311C107.081 23.1311 106.523 23.4071 106.13 23.9599C105.788 24.4474 105.617 25.0636 105.617 25.8075V30.7166H103.565L103.584 24.307C103.584 23.2286 103.558 22.2468 103.507 21.3615H105.295L105.37 23.1516H105.427C105.644 22.5364 105.985 22.0411 106.453 21.6696C106.911 21.3352 107.405 21.1685 107.937 21.1685C108.127 21.1685 108.299 21.1821 108.451 21.2065V23.1887Z" fill="#222222"/>
<path d="M117.632 25.5959C117.632 25.9684 117.608 26.2823 117.557 26.5387H111.398C111.422 27.463 111.719 28.1699 112.291 28.6574C112.811 29.0932 113.482 29.3116 114.306 29.3116C115.218 29.3116 116.05 29.1644 116.798 28.869L117.12 30.312C116.245 30.6981 115.213 30.8902 114.022 30.8902C112.589 30.8902 111.464 30.4631 110.646 29.61C109.829 28.7569 109.42 27.6112 109.42 26.1741C109.42 24.7633 109.8 23.5884 110.562 22.6514C111.359 21.6511 112.437 21.1509 113.793 21.1509C115.125 21.1509 116.133 21.6511 116.817 22.6514C117.36 23.446 117.632 24.4288 117.632 25.5959ZM115.674 25.0567C115.688 24.4405 115.554 23.9082 115.276 23.4587C114.92 22.8805 114.374 22.5919 113.64 22.5919C112.968 22.5919 112.422 22.8737 112.005 23.4392C111.664 23.8887 111.46 24.4279 111.398 25.0558H115.674V25.0567Z" fill="#222222"/>
<path d="M47.2336 9.75897C47.2336 10.9065 46.8936 11.7704 46.2147 12.3505C45.5859 12.8858 44.6923 13.1539 43.5348 13.1539C42.9609 13.1539 42.4698 13.1286 42.0586 13.0779V6.80765C42.595 6.7199 43.1727 6.67505 43.7967 6.67505C44.8993 6.67505 45.7304 6.91782 46.2908 7.40337C46.9187 7.9523 47.2336 8.73717 47.2336 9.75897ZM46.1695 9.78725C46.1695 9.04332 45.975 8.47295 45.5859 8.07515C45.1969 7.67832 44.6287 7.47942 43.8805 7.47942C43.5627 7.47942 43.2921 7.50087 43.0678 7.54572V12.3125C43.192 12.332 43.4193 12.3408 43.7496 12.3408C44.5219 12.3408 45.1179 12.1233 45.5378 11.6885C45.9576 11.2536 46.1695 10.6199 46.1695 9.78725Z" fill="#222222"/>
<path d="M52.8757 10.7611C52.8757 11.468 52.6764 12.0471 52.2777 12.5015C51.8598 12.9685 51.3061 13.2015 50.6147 13.2015C49.9483 13.2015 49.4177 12.9783 49.0219 12.5298C48.6271 12.0822 48.4297 11.5177 48.4297 10.8372C48.4297 10.1254 48.6329 9.5414 49.0412 9.08802C49.4495 8.63465 49.9984 8.40747 50.6898 8.40747C51.3561 8.40747 51.8915 8.63075 52.2969 9.07827C52.6821 9.51312 52.8757 10.0747 52.8757 10.7611ZM51.8289 10.7943C51.8289 10.3701 51.7384 10.0065 51.5584 9.70325C51.3465 9.33665 51.0451 9.15335 50.6532 9.15335C50.2478 9.15335 49.9396 9.33665 49.7278 9.70325C49.5467 10.0065 49.4572 10.376 49.4572 10.8128C49.4572 11.2369 49.5477 11.6006 49.7278 11.9038C49.9464 12.2704 50.2507 12.4537 50.6435 12.4537C51.0287 12.4537 51.3311 12.2675 51.5487 11.8941C51.7355 11.585 51.8289 11.2184 51.8289 10.7943Z" fill="#222222"/>
<path d="M60.4403 8.50146L59.0199 13.0976H58.0955L57.5071 11.1018C57.3579 10.6036 57.2365 10.1083 57.1422 9.61686H57.1239C57.0362 10.1219 56.9149 10.6162 56.7589 11.1018L56.1339 13.0976H55.1989L53.8633 8.50146H54.9004L55.4136 10.6864C55.5379 11.2032 55.6399 11.6956 55.7218 12.1616H55.7401C55.8152 11.7775 55.9394 11.288 56.1147 10.6962L56.7589 8.50244H57.5813L58.1985 10.6494C58.3478 11.173 58.4691 11.677 58.5625 12.1626H58.5905C58.6588 11.6897 58.7619 11.1856 58.8986 10.6494L59.4494 8.50244H60.4403V8.50146Z" fill="#222222"/>
<path d="M65.6723 13.0975H64.6631V10.465C64.6631 9.65376 64.3588 9.24816 63.7483 9.24816C63.4488 9.24816 63.2071 9.35931 63.0194 9.58259C62.8335 9.80586 62.7391 10.0691 62.7391 10.3704V13.0965H61.7299V9.81464C61.7299 9.41099 61.7174 8.97321 61.6934 8.49936H62.5802L62.6274 9.21794H62.6554C62.7728 8.99466 62.9481 8.81039 63.1782 8.66316C63.4517 8.49156 63.758 8.40479 64.0931 8.40479C64.5168 8.40479 64.8692 8.54324 65.1494 8.82111C65.498 9.16139 65.6723 9.66936 65.6723 10.3441V13.0975Z" fill="#222222"/>
<path d="M68.4555 13.0974H67.4473V6.39233H68.4555V13.0974Z" fill="#222222"/>
<path d="M74.3972 10.7611C74.3972 11.468 74.1978 12.0471 73.7992 12.5015C73.3812 12.9685 72.8266 13.2015 72.1361 13.2015C71.4688 13.2015 70.9382 12.9783 70.5434 12.5298C70.1486 12.0822 69.9512 11.5177 69.9512 10.8372C69.9512 10.1254 70.1544 9.5414 70.5627 9.08802C70.971 8.63465 71.5198 8.40747 72.2103 8.40747C72.8776 8.40747 73.4121 8.63075 73.8184 9.07827C74.2036 9.51312 74.3972 10.0747 74.3972 10.7611ZM73.3495 10.7943C73.3495 10.3701 73.2589 10.0065 73.0789 9.70325C72.868 9.33665 72.5656 9.15335 72.1747 9.15335C71.7683 9.15335 71.4601 9.33665 71.2492 9.70325C71.0682 10.0065 70.9787 10.376 70.9787 10.8128C70.9787 11.2369 71.0692 11.6006 71.2492 11.9038C71.4678 12.2704 71.7721 12.4537 72.165 12.4537C72.5502 12.4537 72.8516 12.2675 73.0692 11.8941C73.257 11.585 73.3495 11.2184 73.3495 10.7943Z" fill="#222222"/>
<path d="M79.2814 13.0972H78.3752L78.3001 12.5678H78.2722C77.9621 12.99 77.5201 13.2015 76.9462 13.2015C76.5176 13.2015 76.171 13.0621 75.91 12.7852C75.6731 12.5337 75.5547 12.2207 75.5547 11.8492C75.5547 11.2876 75.7858 10.8596 76.2509 10.5632C76.7151 10.2668 77.3679 10.1215 78.2086 10.1283V10.0425C78.2086 9.43707 77.8947 9.13482 77.2659 9.13482C76.8181 9.13482 76.4233 9.2489 76.0824 9.4751L75.8773 8.8043C76.2991 8.54007 76.82 8.40747 77.4344 8.40747C78.6208 8.40747 79.2159 9.04122 79.2159 10.3087V12.0013C79.2159 12.4605 79.238 12.8262 79.2814 13.0972ZM78.2336 11.5177V10.8089C77.1205 10.7894 76.5639 11.0985 76.5639 11.7351C76.5639 11.975 76.6274 12.1544 76.7574 12.2743C76.8874 12.3942 77.0531 12.4537 77.2505 12.4537C77.4719 12.4537 77.679 12.3825 77.8677 12.2412C78.0574 12.0988 78.1739 11.9184 78.2173 11.6971C78.2279 11.6474 78.2336 11.5869 78.2336 11.5177Z" fill="#222222"/>
<path d="M85.015 13.0974H84.1194L84.0722 12.3593H84.0443C83.7583 12.9209 83.271 13.2017 82.5864 13.2017C82.0394 13.2017 81.5839 12.9843 81.2228 12.5495C80.8617 12.1146 80.6816 11.5501 80.6816 10.8569C80.6816 10.1129 80.8771 9.51038 81.27 9.05018C81.6504 8.62118 82.1165 8.40668 82.6711 8.40668C83.2807 8.40668 83.7073 8.61436 83.9499 9.03068H83.9692V6.39233H84.9793V11.8592C84.9793 12.3067 84.9909 12.7191 85.015 13.0974ZM83.9692 11.1591V10.3928C83.9692 10.2602 83.9596 10.1529 83.9413 10.071C83.8845 9.82531 83.7622 9.61861 83.5763 9.45188C83.3885 9.28516 83.1622 9.20131 82.9013 9.20131C82.5247 9.20131 82.2301 9.35243 82.0134 9.65566C81.7987 9.95888 81.6899 10.346 81.6899 10.8188C81.6899 11.2732 81.7929 11.6417 81.9999 11.9255C82.2185 12.2277 82.5132 12.3788 82.882 12.3788C83.2133 12.3788 83.4781 12.2531 83.6793 12.0005C83.8739 11.7675 83.9692 11.4867 83.9692 11.1591Z" fill="#222222"/>
<path d="M93.6462 10.7611C93.6462 11.468 93.4469 12.0471 93.0482 12.5015C92.6303 12.9685 92.0775 13.2015 91.3852 13.2015C90.7198 13.2015 90.1892 12.9783 89.7924 12.5298C89.3976 12.0822 89.2002 11.5177 89.2002 10.8372C89.2002 10.1254 89.4034 9.5414 89.8117 9.08802C90.22 8.63465 90.7689 8.40747 91.4612 8.40747C92.1266 8.40747 92.663 8.63075 93.0675 9.07827C93.4526 9.51312 93.6462 10.0747 93.6462 10.7611ZM92.6004 10.7943C92.6004 10.3701 92.5099 10.0065 92.3298 9.70325C92.117 9.33665 91.8166 9.15335 91.4237 9.15335C91.0192 9.15335 90.7111 9.33665 90.4983 9.70325C90.3172 10.0065 90.2277 10.376 90.2277 10.8128C90.2277 11.2369 90.3182 11.6006 90.4983 11.9038C90.7169 12.2704 91.0212 12.4537 91.414 12.4537C91.7992 12.4537 92.1026 12.2675 92.3202 11.8941C92.506 11.585 92.6004 11.2184 92.6004 10.7943Z" fill="#222222"/>
<path d="M99.0727 13.0975H98.0645V10.465C98.0645 9.65376 97.7602 9.24816 97.1487 9.24816C96.8492 9.24816 96.6075 9.35931 96.4207 9.58259C96.2339 9.80586 96.1405 10.0691 96.1405 10.3704V13.0965H95.1304V9.81464C95.1304 9.41099 95.1188 8.97321 95.0947 8.49936H95.9806L96.0278 9.21794H96.0558C96.1742 8.99466 96.3495 8.81039 96.5787 8.66316C96.8531 8.49156 97.1584 8.40479 97.4944 8.40479C97.9172 8.40479 98.2696 8.54324 98.5498 8.82111C98.8994 9.16139 99.0727 9.66936 99.0727 10.3441V13.0975Z" fill="#222222"/>
<path d="M105.864 9.26647H104.753V11.4992C104.753 12.0667 104.95 12.3504 105.341 12.3504C105.522 12.3504 105.673 12.3348 105.791 12.3026L105.817 13.0777C105.618 13.1538 105.356 13.1918 105.033 13.1918C104.635 13.1918 104.324 13.069 104.1 12.8233C103.875 12.5776 103.763 12.1642 103.763 11.584V9.26647H103.1V8.5011H103.763V7.6587L104.752 7.35645V8.50012H105.863V9.26647H105.864Z" fill="#222222"/>
<path d="M111.207 13.0974H110.197V10.4844C110.197 9.66053 109.893 9.24811 109.283 9.24811C108.815 9.24811 108.495 9.48698 108.32 9.96473C108.29 10.0652 108.273 10.188 108.273 10.3323V13.0964H107.265V6.39233H108.273V9.16231H108.292C108.61 8.65823 109.065 8.40668 109.656 8.40668C110.074 8.40668 110.419 8.54513 110.694 8.82301C111.036 9.16913 111.207 9.68393 111.207 10.3645V13.0974Z" fill="#222222"/>
<path d="M116.718 10.582C116.718 10.7653 116.705 10.9193 116.681 11.0451H113.654C113.668 11.4994 113.812 11.8456 114.092 12.0854C114.349 12.2999 114.679 12.4072 115.083 12.4072C115.531 12.4072 115.939 12.335 116.307 12.1897L116.465 12.8995C116.035 13.0887 115.528 13.1833 114.942 13.1833C114.239 13.1833 113.685 12.9736 113.284 12.5544C112.882 12.1351 112.683 11.5726 112.683 10.8667C112.683 10.1734 112.868 9.59623 113.243 9.13603C113.634 8.64463 114.163 8.39893 114.83 8.39893C115.483 8.39893 115.979 8.64463 116.314 9.13603C116.585 9.52603 116.718 10.0087 116.718 10.582ZM115.755 10.3177C115.763 10.0145 115.697 9.7532 115.56 9.53285C115.385 9.24913 115.118 9.10678 114.757 9.10678C114.428 9.10678 114.159 9.24523 113.954 9.5231C113.786 9.74443 113.687 10.0087 113.654 10.3177H115.755Z" fill="#222222"/>
</svg>
