<?xml version="1.0" encoding="UTF-8" standalone="no"?>
<svg
   xmlns:dc="http://purl.org/dc/elements/1.1/"
   xmlns:cc="http://creativecommons.org/ns#"
   xmlns:rdf="http://www.w3.org/1999/02/22-rdf-syntax-ns#"
   xmlns:svg="http://www.w3.org/2000/svg"
   xmlns="http://www.w3.org/2000/svg"
   xmlns:sodipodi="http://sodipodi.sourceforge.net/DTD/sodipodi-0.dtd"
   xmlns:inkscape="http://www.inkscape.org/namespaces/inkscape"
   id="Layer_1"
   viewBox="0 0 132.70631 40"
   width="101.25"
   height="30"
   version="1.1"
   sodipodi:docname="google-play-badge.svg"
   inkscape:version="0.92.4 5da689c313, 2019-01-14">
  <metadata
     id="metadata71">
    <rdf:RDF>
      <cc:Work
         rdf:about="">
        <dc:format>image/svg+xml</dc:format>
        <dc:type
           rdf:resource="http://purl.org/dc/dcmitype/StillImage" />
        <dc:title></dc:title>
      </cc:Work>
    </rdf:RDF>
  </metadata>
  <defs
     id="defs69" />
  <sodipodi:namedview
     pagecolor="#ffffff"
     bordercolor="#666666"
     borderopacity="1"
     objecttolerance="10"
     gridtolerance="10"
     guidetolerance="10"
     inkscape:pageopacity="0"
     inkscape:pageshadow="2"
     inkscape:window-width="1920"
     inkscape:window-height="1020"
     id="namedview67"
     showgrid="false"
     inkscape:zoom="8.7378641"
     inkscape:cx="54.424333"
     inkscape:cy="4.5129422"
     inkscape:window-x="0"
     inkscape:window-y="34"
     inkscape:window-maximized="1"
     inkscape:current-layer="Layer_1" />
  <style
     id="style2">.st0{fill:#a6a6a6}.st1{stroke:#fff;stroke-width:.2;stroke-miterlimit:10}.st1,.st2{fill:#fff}.st3{fill:url(#SVGID_1_)}.st4{fill:url(#SVGID_2_)}.st5{fill:url(#SVGID_3_)}.st6{fill:url(#SVGID_4_)}.st7,.st8,.st9{opacity:.2;enable-background:new}.st8,.st9{opacity:.12}.st9{opacity:.25;fill:#fff}</style>
  <path
     d="M 128.83333,40 H 3.8333333 c -2.8,0 -5,-2.2 -5,-5 V 5 c 0,-2.8 2.2,-5 5,-5 H 128.83333 c 2.8,0 5,2.2 5,5 v 30 c 0,2.8 -2.2,5 -5,5 z"
     id="path4"
     inkscape:connector-curvature="0" />
  <path
     class="st0"
     d="m 128.83333,0.8 c 2.3,0 4.2,1.9 4.2,4.2 v 30 c 0,2.3 -1.9,4.2 -4.2,4.2 H 3.8333333 c -2.3,0 -4.19999997,-1.9 -4.19999997,-4.2 V 5 c 0,-2.3 1.89999997,-4.2 4.19999997,-4.2 H 128.83333 m 0,-0.8 H 3.8333333 c -2.8,0 -5,2.3 -5,5 v 30 c 0,2.8 2.2,5 5,5 H 128.83333 c 2.8,0 5,-2.2 5,-5 V 5 c 0,-2.7 -2.2,-5 -5,-5 z"
     id="path6"
     inkscape:connector-curvature="0"
     style="fill:#a6a6a6" />
  <path
     class="st1"
     d="m 46.233333,10.2 c 0,0.8 -0.2,1.5 -0.7,2 -0.6,0.6 -1.3,0.9 -2.2,0.9 -0.9,0 -1.6,-0.3 -2.2,-0.9 -0.6,-0.6 -0.9,-1.3 -0.9,-2.2 0,-0.9 0.3,-1.6 0.9,-2.2 0.6,-0.6 1.3,-0.9 2.2,-0.9 0.4,0 0.8,0.1 1.2,0.3 0.4,0.2 0.7,0.4 0.9,0.7 l -0.5,0.5 c -0.4,-0.5 -0.9,-0.7 -1.6,-0.7 -0.6,0 -1.2,0.2 -1.6,0.7 -0.5,0.4 -0.7,1 -0.7,1.7 0,0.7 0.2,1.3 0.7,1.7 0.5,0.4 1,0.7 1.6,0.7 0.7,0 1.2,-0.2 1.7,-0.7 0.3,-0.3 0.5,-0.7 0.5,-1.2 h -2.2 V 9.8 h 2.9 z m 4.6,-2.5 h -2.7 v 1.9 h 2.5 v 0.7 h -2.5 v 1.9 h 2.7 V 13 h -3.5 V 7 h 3.5 z m 3.3,5.3 h -0.8 V 7.7 h -1.7 V 7 h 4.2 v 0.7 h -1.7 z m 4.6,0 V 7 h 0.8 v 6 z m 4.2,0 h -0.8 V 7.7 h -1.7 V 7 h 4.1 v 0.7 h -1.7 V 13 Z m 9.5,-0.8 c -0.6,0.6 -1.3,0.9 -2.2,0.9 -0.9,0 -1.6,-0.3 -2.2,-0.9 -0.6,-0.6 -0.9,-1.3 -0.9,-2.2 0,-0.9 0.3,-1.6 0.9,-2.2 0.6,-0.6 1.3,-0.9 2.2,-0.9 0.9,0 1.6,0.3 2.2,0.9 0.6,0.6 0.9,1.3 0.9,2.2 0,0.9 -0.3,1.6 -0.9,2.2 z m -3.8,-0.5 c 0.4,0.4 1,0.7 1.6,0.7 0.6,0 1.2,-0.2 1.6,-0.7 0.4,-0.4 0.7,-1 0.7,-1.7 0,-0.7 -0.2,-1.3 -0.7,-1.7 -0.4,-0.4 -1,-0.7 -1.6,-0.7 -0.6,0 -1.2,0.2 -1.6,0.7 -0.4,0.4 -0.7,1 -0.7,1.7 0,0.7 0.2,1.3 0.7,1.7 z m 5.8,1.3 V 7 h 0.9 l 2.9,4.7 V 7 h 0.8 v 6 h -0.8 l -3.1,-4.9 V 13 Z"
     id="path8"
     inkscape:connector-curvature="0"
     style="fill:#ffffff;stroke:#ffffff;stroke-width:0.2;stroke-miterlimit:10" />
  <path
     class="st2"
     d="m 66.933333,21.8 c -2.4,0 -4.3,1.8 -4.3,4.3 0,2.4 1.9,4.3 4.3,4.3 2.4,0 4.3,-1.8 4.3,-4.3 0,-2.6 -1.9,-4.3 -4.3,-4.3 z m 0,6.8 c -1.3,0 -2.4,-1.1 -2.4,-2.6 0,-1.5 1.1,-2.6 2.4,-2.6 1.3,0 2.4,1 2.4,2.6 0,1.5 -1.1,2.6 -2.4,2.6 z m -9.3,-6.8 c -2.4,0 -4.3,1.8 -4.3,4.3 0,2.4 1.9,4.3 4.3,4.3 2.4,0 4.3,-1.8 4.3,-4.3 0,-2.6 -1.9,-4.3 -4.3,-4.3 z m 0,6.8 c -1.3,0 -2.4,-1.1 -2.4,-2.6 0,-1.5 1.1,-2.6 2.4,-2.6 1.3,0 2.4,1 2.4,2.6 0,1.5 -1.1,2.6 -2.4,2.6 z m -11.1,-5.5 v 1.8 h 4.3 c -0.1,1 -0.5,1.8 -1,2.3 -0.6,0.6 -1.6,1.3 -3.3,1.3 -2.7,0 -4.7,-2.1 -4.7,-4.8 0,-2.7 2.1,-4.8 4.7,-4.8 1.4,0 2.5,0.6 3.3,1.3 l 1.3,-1.3 c -1.1,-1 -2.5,-1.8 -4.5,-1.8 -3.6,0 -6.7,3 -6.7,6.6 0,3.6 3.1,6.6 6.7,6.6 2,0 3.4,-0.6 4.6,-1.9 1.2,-1.2 1.6,-2.9 1.6,-4.2 0,-0.4 0,-0.8 -0.1,-1.1 z m 45.4,1.4 c -0.4,-1 -1.4,-2.7 -3.6,-2.7 -2.2,0 -4,1.7 -4,4.3 0,2.4 1.8,4.3 4.2,4.3 1.9,0 3.1,-1.2 3.5,-1.9 l -1.4,-1 c -0.5,0.7 -1.1,1.2 -2.1,1.2 -1,0 -1.6,-0.4 -2.1,-1.3 l 5.7,-2.4 z m -5.8,1.4 c 0,-1.6 1.3,-2.5 2.2,-2.5 0.7,0 1.4,0.4 1.6,0.9 z m -4.7,4.1 h 1.9 V 17.5 h -1.9 z m -3,-7.3 c -0.5,-0.5 -1.3,-1 -2.3,-1 -2.1,0 -4.1,1.9 -4.1,4.3 0,2.4 1.9,4.2 4.1,4.2 1,0 1.8,-0.5 2.2,-1 h 0.1 v 0.6 c 0,1.6 -0.9,2.5 -2.3,2.5 -1.1,0 -1.9,-0.8 -2.1,-1.5 l -1.6,0.7 c 0.5,1.1 1.7,2.5 3.8,2.5 2.2,0 4,-1.3 4,-4.4 V 22 h -1.8 z m -2.2,5.9 c -1.3,0 -2.4,-1.1 -2.4,-2.6 0,-1.5 1.1,-2.6 2.4,-2.6 1.3,0 2.3,1.1 2.3,2.6 0,1.5 -1,2.6 -2.3,2.6 z M 100.63333,17.5 H 96.133333 V 30 h 1.9 v -4.7 h 2.599997 c 2.1,0 4.1,-1.5 4.1,-3.9 0,-2.4 -2,-3.9 -4.1,-3.9 z m 0.1,6 h -2.699997 v -4.3 h 2.699997 c 1.4,0 2.2,1.2 2.2,2.1 -0.1,1.1 -0.9,2.2 -2.2,2.2 z m 11.5,-1.8 c -1.4,0 -2.8,0.6 -3.3,1.9 l 1.7,0.7 c 0.4,-0.7 1,-0.9 1.7,-0.9 1,0 1.9,0.6 2,1.6 v 0.1 c -0.3,-0.2 -1.1,-0.5 -1.9,-0.5 -1.8,0 -3.6,1 -3.6,2.8 0,1.7 1.5,2.8 3.1,2.8 1.3,0 1.9,-0.6 2.4,-1.2 h 0.1 v 1 h 1.8 v -4.8 c -0.2,-2.2 -1.9,-3.5 -4,-3.5 z m -0.2,6.9 c -0.6,0 -1.5,-0.3 -1.5,-1.1 0,-1 1.1,-1.3 2,-1.3 0.8,0 1.2,0.2 1.7,0.4 -0.2,1.2 -1.2,2 -2.2,2 z m 10.5,-6.6 -2.1,5.4 h -0.1 l -2.2,-5.4 h -2 l 3.3,7.6 -1.9,4.2 h 1.9 l 5.1,-11.8 z m -16.8,8 h 1.9 V 17.5 h -1.9 z"
     id="path10"
     inkscape:connector-curvature="0"
     style="fill:#ffffff" />
  <g
     id="g64"
     transform="translate(-1.1666667)">
    <linearGradient
       id="SVGID_1_"
       gradientUnits="userSpaceOnUse"
       x1="21.799999"
       y1="33.290001"
       x2="5.0170002"
       y2="16.507999"
       gradientTransform="matrix(1,0,0,-1,0,42)">
      <stop
         offset="0"
         stop-color="#00a0ff"
         id="stop12" />
      <stop
         offset=".007"
         stop-color="#00a1ff"
         id="stop14" />
      <stop
         offset=".26"
         stop-color="#00beff"
         id="stop16" />
      <stop
         offset=".512"
         stop-color="#00d2ff"
         id="stop18" />
      <stop
         offset=".76"
         stop-color="#00dfff"
         id="stop20" />
      <stop
         offset="1"
         stop-color="#00e3ff"
         id="stop22" />
    </linearGradient>
    <path
       class="st3"
       d="M 10.4,7.5 C 10.1,7.8 10,8.3 10,8.9 V 31 c 0,0.6 0.2,1.1 0.5,1.4 L 10.6,32.5 23,20.1 v -0.2 z"
       id="path25"
       inkscape:connector-curvature="0"
       style="fill:url(#SVGID_1_)" />
    <linearGradient
       id="SVGID_2_"
       gradientUnits="userSpaceOnUse"
       x1="33.834"
       y1="21.999001"
       x2="9.6370001"
       y2="21.999001"
       gradientTransform="matrix(1,0,0,-1,0,42)">
      <stop
         offset="0"
         stop-color="#ffe000"
         id="stop27" />
      <stop
         offset=".409"
         stop-color="#ffbd00"
         id="stop29" />
      <stop
         offset=".775"
         stop-color="orange"
         id="stop31" />
      <stop
         offset="1"
         stop-color="#ff9c00"
         id="stop33" />
    </linearGradient>
    <path
       class="st4"
       d="m 27,24.3 -4.1,-4.1 v -0.3 l 4.1,-4.1 0.1,0.1 4.9,2.8 c 1.4,0.8 1.4,2.1 0,2.9 z"
       id="path36"
       inkscape:connector-curvature="0"
       style="fill:url(#SVGID_2_)" />
    <linearGradient
       id="SVGID_3_"
       gradientUnits="userSpaceOnUse"
       x1="24.827"
       y1="19.704"
       x2="2.069"
       y2="-3.0539999"
       gradientTransform="matrix(1,0,0,-1,0,42)">
      <stop
         offset="0"
         stop-color="#ff3a44"
         id="stop38" />
      <stop
         offset="1"
         stop-color="#c31162"
         id="stop40" />
    </linearGradient>
    <path
       class="st5"
       d="M 27.1,24.2 22.9,20 10.4,32.5 c 0.5,0.5 1.2,0.5 2.1,0.1 l 14.6,-8.4"
       id="path43"
       inkscape:connector-curvature="0"
       style="fill:url(#SVGID_3_)" />
    <linearGradient
       id="SVGID_4_"
       gradientUnits="userSpaceOnUse"
       x1="7.2969999"
       y1="41.824001"
       x2="17.459999"
       y2="31.660999"
       gradientTransform="matrix(1,0,0,-1,0,42)">
      <stop
         offset="0"
         stop-color="#32a071"
         id="stop45" />
      <stop
         offset=".069"
         stop-color="#2da771"
         id="stop47" />
      <stop
         offset=".476"
         stop-color="#15cf74"
         id="stop49" />
      <stop
         offset=".801"
         stop-color="#06e775"
         id="stop51" />
      <stop
         offset="1"
         stop-color="#00f076"
         id="stop53" />
    </linearGradient>
    <path
       class="st6"
       d="M 27.1,15.8 12.5,7.5 C 11.6,7 10.9,7.1 10.4,7.6 L 22.9,20 Z"
       id="path56"
       inkscape:connector-curvature="0"
       style="fill:url(#SVGID_4_)" />
    <path
       class="st7"
       d="m 27,24.1 -14.5,8.2 c -0.8,0.5 -1.5,0.4 -2,0 l -0.1,0.1 0.1,0.1 c 0.5,0.4 1.2,0.5 2,0 z"
       id="path58"
       inkscape:connector-curvature="0"
       style="opacity:0.2;enable-background:new" />
    <path
       class="st8"
       d="M 10.4,32.3 C 10.1,32 10,31.5 10,30.9 V 31 c 0,0.6 0.2,1.1 0.5,1.4 v -0.1 z m 21.6,-11 -5,2.8 0.1,0.1 4.9,-2.8 c 0.7,-0.4 1,-0.9 1,-1.4 0,0.5 -0.4,0.9 -1,1.3 z"
       id="path60"
       inkscape:connector-curvature="0"
       style="opacity:0.12000002;enable-background:new" />
    <path
       class="st9"
       d="M 12.5,7.6 32,18.7 c 0.6,0.4 1,0.8 1,1.3 0,-0.5 -0.3,-1 -1,-1.4 L 12.5,7.5 C 11.1,6.7 10,7.3 10,8.9 V 9 c 0,-1.5 1.1,-2.2 2.5,-1.4 z"
       id="path62"
       inkscape:connector-curvature="0"
       style="opacity:0.25;fill:#ffffff;enable-background:new" />
  </g>
</svg>
