<svg width="30" height="30" fill="none" xmlns="http://www.w3.org/2000/svg"><path d="M15.017 12a3.002 3.002 0 0 0 3.003-3.027A3.008 3.008 0 0 0 15 5.957a3.01 3.01 0 0 0-3.025 3.052 3.008 3.008 0 0 0 3.04 2.992z" fill="#fff"/><path d="M28.408 0H1.595C.713 0 0 .713 0 1.595v26.81C0 29.287.713 30 1.595 30h26.81c.882 0 1.595-.713 1.595-1.595V1.595A1.59 1.59 0 0 0 28.408 0zM15.026 2.798c3.414.01 6.157 2.802 6.138 6.258-.018 3.374-2.804 6.108-6.215 6.096-3.376-.013-6.144-2.81-6.123-6.19.022-3.42 2.792-6.173 6.2-6.164zm6.92 14.781c-.757.775-1.666 1.338-2.674 1.73-.808.314-1.681.496-2.56.618-.199.028-.291.272-.15.414 1.406 1.411 2.817 2.82 4.22 4.234.477.484.578 1.08.315 1.64-.288.616-.93 1.017-1.561.974-.401-.027-.71-.226-.99-.505-1.062-1.068-2.142-2.115-3.18-3.202-.303-.315-.447-.257-.716.018a203.442 203.442 0 0 1-3.243 3.255c-.49.483-1.071.57-1.64.294-.604-.294-.99-.91-.959-1.528.021-.42.227-.738.514-1.026 1.39-1.39 2.777-2.78 4.167-4.172.133-.133.045-.363-.142-.388-1.711-.225-3.26-.703-4.603-1.752-.18-.141-.368-.28-.536-.438-.64-.616-.704-1.317-.196-2.042.432-.619 1.16-.787 1.913-.432.147.067.285.156.42.248 2.722 1.87 6.463 1.923 9.194.086.27-.206.56-.377.897-.463.652-.168 1.258.07 1.61.643.398.652.392 1.286-.1 1.794z" fill="#fff"/></svg>