<svg width="30" height="30" fill="none" xmlns="http://www.w3.org/2000/svg"><path fill-rule="evenodd" clip-rule="evenodd" d="M2 0a2 2 0 0 0-2 2v26a2 2 0 0 0 2 2h26a2 2 0 0 0 2-2V2a2 2 0 0 0-2-2H2zm23.372 6.638l-3.524 16.954a.564.564 0 0 1-.884.341l-4.811-3.493a.795.795 0 0 0-.97.027l-2.668 2.175a.563.563 0 0 1-.895-.27l-1.56-5.02a2 2 0 0 0-1.211-1.28L4.982 14.63a.564.564 0 0 1-.005-1.055l19.64-7.577a.564.564 0 0 1 .755.641z" fill="#fff"/><path fill-rule="evenodd" clip-rule="evenodd" d="M20.675 9.708l-9.353 5.759a.942.942 0 0 0-.412 1.059l1.011 3.552c.072.252.438.226.473-.034l.262-1.948a1.6 1.6 0 0 1 .496-.957l7.72-7.173c.144-.134-.03-.361-.197-.258z" fill="#fff"/></svg>