<svg width="30" height="30" fill="none" xmlns="http://www.w3.org/2000/svg"><path fill-rule="evenodd" clip-rule="evenodd" d="M2 0a2 2 0 0 0-2 2v26a2 2 0 0 0 2 2h26a2 2 0 0 0 2-2V2a2 2 0 0 0-2-2H2zm21.59 10.512a.846.846 0 0 0-.32.669v.135c0 5.63-4.285 12.123-12.123 12.123a12.06 12.06 0 0 1-5.652-1.4c-.22-.117-.112-.455.137-.455a8.59 8.59 0 0 0 2.361-.328c1.065-.304.742-1.983-.033-2.773a4.273 4.273 0 0 1-.7-.942c-.174-.319.122-.663.485-.663.283 0 .305-.392.052-.52A4.262 4.262 0 0 1 5.45 12.55c0-.024.026-.04.047-.028.174.094.355.176.543.246.37.137.583-.357.34-.669a4.248 4.248 0 0 1-.896-2.616c0-1.086 1.319-1.244 2.147-.542a12.069 12.069 0 0 0 6.238 2.763c.486.064.864-.392.864-.882a4.261 4.261 0 0 1 7.005-3.263c.24.202.555.314.86.235.422-.11.832-.25 1.226-.42.356-.152.725.172.515.498-.09.14-.19.277-.296.406-.215.26.015.749.339.652.3-.09.553.25.347.488a8.65 8.65 0 0 1-1.139 1.094z" fill="#fff"/></svg>