<svg width="598" height="359" viewBox="0 0 598 359" fill="none" xmlns="http://www.w3.org/2000/svg">
<path d="M553 23H536C530.477 23 526 27.4771 526 33V336C526 341.523 530.477 346 536 346H553C558.523 346 563 341.523 563 336V33C563 27.4772 558.523 23 553 23Z" fill="#AD475C"/>
<path d="M499.363 55.0125H479.742C474.219 55.0125 469.742 59.4896 469.742 65.0124V342.308C469.742 347.831 474.219 352.308 479.742 352.308H499.363C504.885 352.308 509.363 347.831 509.363 342.308V65.0125C509.363 59.4896 504.885 55.0125 499.363 55.0125Z" fill="#AD475C"/>
<path d="M186.961 70.4047H167.341C161.818 70.4047 157.341 74.8818 157.341 80.4047V342.308C157.341 347.831 161.818 352.308 167.341 352.308H186.961C192.484 352.308 196.961 347.831 196.961 342.308V80.4047C196.961 74.8818 192.484 70.4047 186.961 70.4047Z" fill="#AD475C"/>
<path d="M422.404 135.678H403.068C397.546 135.678 393.068 140.156 393.068 145.678V342.308C393.068 347.831 397.546 352.308 403.068 352.308H422.404C427.927 352.308 432.404 347.831 432.404 342.308V145.678C432.404 140.156 427.927 135.678 422.404 135.678Z" fill="#AD475C"/>
<path d="M328.626 70.4047H309.006C303.483 70.4047 299.006 74.8818 299.006 80.4047V342.308C299.006 347.831 303.483 352.308 309.006 352.308H328.626C334.149 352.308 338.626 347.831 338.626 342.308V80.4047C338.626 74.8818 334.149 70.4047 328.626 70.4047Z" fill="#AD475C"/>
<path d="M265.062 166.748H245.441C239.919 166.748 235.441 171.225 235.441 176.748V342.308C235.441 347.831 239.919 352.308 245.441 352.308H265.062C270.585 352.308 275.062 347.831 275.062 342.308V176.748C275.062 171.225 270.585 166.748 265.062 166.748Z" fill="#AD475C"/>
<path d="M154.873 349.629H103.674C100.656 349.629 98.21 347.808 98.21 345.561C98.21 343.314 100.656 341.493 103.674 341.493H154.873C157.891 341.493 160.337 343.314 160.337 345.561C160.337 347.808 157.891 349.629 154.873 349.629Z" fill="white"/>
<path d="M221.027 349.629H169.828C166.81 349.629 164.364 347.808 164.364 345.561C164.364 343.314 166.81 341.493 169.828 341.493H221.027C224.046 341.493 226.491 343.314 226.491 345.561C226.491 347.808 224.046 349.629 221.027 349.629Z" fill="white"/>
<path d="M566.702 334.208V337.141C566.702 349.213 553.556 359 537.341 359H37.5308C21.3149 359 8.16895 349.213 8.16895 337.141V334.214C8.16895 331.887 10.7029 330 13.8298 330H561.05C564.171 330 566.702 331.884 566.702 334.208Z" fill="white"/>
<path d="M220.035 350.35H104.289C101.157 350.35 98.6143 348.46 98.6143 346.125C98.6143 343.793 101.154 341.9 104.289 341.9H220.035C223.168 341.9 225.71 343.791 225.71 346.125C225.71 348.46 223.168 350.35 220.035 350.35Z" fill="white"/>
<path d="M220.035 350.35H104.289C101.157 350.35 98.6143 348.46 98.6143 346.125C98.6143 343.793 101.154 341.9 104.289 341.9H220.035C223.168 341.9 225.71 343.791 225.71 346.125C225.71 348.46 223.168 350.35 220.035 350.35Z" fill="white"/>
<path d="M154.175 349.996H104.305C101.571 349.996 99.3564 348.347 99.3564 346.312C99.3564 344.277 101.571 342.628 104.305 342.628H154.175C156.909 342.628 159.123 344.277 159.123 346.312C159.123 348.347 156.909 349.996 154.175 349.996Z" fill="white"/>
<path d="M220.498 350.019H170.297C167.546 350.019 165.314 348.36 165.314 346.31C165.314 344.262 167.543 342.601 170.297 342.601H220.498C223.249 342.601 225.48 344.26 225.48 346.31C225.478 348.36 223.249 350.019 220.498 350.019Z" fill="white"/>
<path d="M562.667 330.36H10.5469V267.766L32.9507 222.011L58.8666 242.646L130.329 166.451L196.635 184.627L275.612 129.146L350.274 169.972L418.81 81.3466L484.321 111.788L562.667 34.4897V330.36Z" fill="url(#paint0_linear_48_258)"/>
<path d="M562.668 330.36H11.6875V285.011L59.2268 284.39L138.606 201.084L198.621 256.899L274.639 222.752L339.225 225.152L413.751 168.855L471.721 236.989L562.668 104.324V330.36Z" fill="url(#paint1_linear_48_258)"/>
<path d="M562.667 330.36H10.5469V285.011L58.8948 243.935L105.788 269.868L136.564 231.34L159.362 239.187L203.973 269.127L232.549 237.266L266.987 255.049L302.89 221.709L338.762 225.152L369.568 224.67L408.403 189.848L444.306 181.699L472.883 215.039L502.19 169.103L533.698 179.476L562.667 104.324V330.36Z" fill="url(#paint2_linear_48_258)"/>
<path d="M565.511 32.7868C565.38 32.6528 563.369 34.3719 559.66 37.7673C555.951 41.1626 550.545 46.2344 543.627 52.8027C529.97 65.7685 510.412 84.5756 486.387 107.839C467.016 98.7444 445.367 88.5839 421.885 77.5625L420.233 76.7871L419.094 78.2439C398.372 104.768 375.558 133.973 351.334 164.981C331.331 154.074 310.674 142.807 289.535 131.278C285.761 129.223 282.001 127.179 278.259 125.141L276.808 124.351L275.459 125.297C248.272 144.361 222.007 162.781 197.117 180.234C174.171 174.05 152.23 168.134 131.57 162.567L130.213 162.202L129.261 163.22C102.328 192.042 78.5089 217.637 58.9396 238.776C49.74 231.638 41.3649 225.138 33.922 219.362L32.5819 218.321L31.8622 219.829C24.8868 234.466 19.4498 246.006 15.8147 253.92C13.9957 257.877 12.6273 260.924 11.7433 262.997C10.8593 265.07 10.4542 266.167 10.5647 266.224C10.6752 266.278 11.2985 265.292 12.3978 263.325C13.4971 261.358 15.0752 258.416 17.0982 254.561C20.9996 247.126 26.5612 236.293 33.531 222.558C40.8635 228.496 49.0657 235.138 58.0755 242.434L59.2739 243.406L60.3647 242.268C80.2626 221.517 104.439 196.167 131.683 167.482C152.27 173.169 174.1 179.202 196.936 185.51L198.078 185.827L199.061 185.14C223.866 167.835 250.057 149.57 277.157 130.663C280.423 132.442 283.696 134.223 286.985 136.017C308.824 147.885 330.158 159.479 350.779 170.686L352.734 171.749L354.094 169.99C378.221 138.751 400.953 109.321 421.621 82.5601C445.052 93.2423 466.656 103.089 485.964 111.89L487.171 112.44L488.095 111.519C512.223 87.475 531.707 67.9294 545.094 54.3251C551.786 47.5229 556.957 42.2061 560.419 38.557C563.884 34.9022 565.641 32.9208 565.511 32.7868Z" fill="#D9D9D9"/>
<g opacity="0.77">
<g opacity="0.6">
<path d="M93.1307 262.355H92.8143V256.025H91.2209V262.355H90.9045C89.3966 262.355 88.1738 263.578 88.1738 265.086V279.937C88.1738 281.445 89.3966 282.667 90.9045 282.667H91.2209V288.998H92.8143V282.667H93.1307C94.6385 282.667 95.8613 281.445 95.8613 279.937V265.086C95.8613 263.578 94.6385 262.355 93.1307 262.355Z" fill="white"/>
<path d="M151.636 255.235H151.319V240.442H149.726V255.235H149.409C147.902 255.235 146.679 256.458 146.679 257.966V272.816C146.679 274.324 147.902 275.547 149.409 275.547H151.636C153.143 275.547 154.366 274.324 154.366 272.816V257.966C154.366 256.458 153.143 255.235 151.636 255.235Z" fill="white"/>
<path d="M128.233 240.205H127.917V233.874H126.323V240.205H126.007C124.499 240.205 123.276 241.428 123.276 242.936V257.786C123.276 259.294 124.499 260.517 126.007 260.517H126.323V266.848H127.917V260.517H128.233C129.741 260.517 130.964 259.294 130.964 257.786V242.936C130.964 241.428 129.741 240.205 128.233 240.205Z" fill="white"/>
<path d="M218.813 261.86H218.497V255.529H216.903V261.86H216.587C215.079 261.86 213.856 263.082 213.856 264.59V279.441C213.856 280.949 215.079 282.171 216.587 282.171H216.903V288.502H218.497V282.171H218.813C220.321 282.171 221.544 280.949 221.544 279.441V264.59C221.541 263.08 220.321 261.86 218.813 261.86Z" fill="white"/>
<path d="M116.533 223.06H114.307C112.799 223.06 111.576 224.283 111.576 225.791V240.641C111.576 242.149 112.799 243.372 114.307 243.372H114.623V256.298H116.217V243.372H116.533C118.041 243.372 119.264 242.149 119.264 240.641V225.791C119.264 224.283 118.041 223.06 116.533 223.06Z" fill="white"/>
<path d="M139.934 256.917H137.708C136.2 256.917 134.978 258.14 134.978 259.648V274.498C134.978 276.006 136.2 277.229 137.708 277.229H138.025V290.155H139.618V277.229H139.934C141.442 277.229 142.665 276.006 142.665 274.498V259.648C142.665 258.14 141.442 256.917 139.934 256.917Z" fill="white"/>
<path d="M81.4305 270.511H81.1141V264.18H79.5207V270.511H79.2043C77.6965 270.511 76.4736 271.733 76.4736 273.241V288.092C76.4736 289.6 77.6965 290.822 79.2043 290.822H79.5207V297.153H81.1141V290.822H81.4305C82.9383 290.822 84.1611 289.6 84.1611 288.092V273.241C84.1611 271.733 82.9383 270.511 81.4305 270.511Z" fill="white"/>
<path d="M69.7293 277.083H69.4129V270.753H67.8195V277.083H67.5031C65.9953 277.083 64.7725 278.306 64.7725 279.814V294.665C64.7725 296.172 65.9953 297.395 67.5031 297.395H67.8195V303.726H69.4129V297.395H69.7293C71.2371 297.395 72.4599 296.172 72.4599 294.665V279.814C72.4599 278.306 71.2371 277.083 69.7293 277.083Z" fill="white"/>
<path d="M104.534 263.858H102.904C101.231 263.858 99.877 262.504 99.877 260.831V222.174C99.877 220.5 101.231 219.146 102.904 219.146H104.534C106.208 219.146 107.562 220.5 107.562 222.174V260.831C107.562 262.504 106.205 263.858 104.534 263.858Z" fill="white"/>
<path d="M163.04 267.244H161.41C159.737 267.244 158.383 265.89 158.383 264.217V225.56C158.383 223.889 159.737 222.533 161.41 222.533H163.04C164.714 222.533 166.067 223.887 166.067 225.56V264.217C166.067 265.89 164.711 267.244 163.04 267.244Z" fill="white"/>
<path d="M196.959 254.973H195.329C193.656 254.973 192.302 253.619 192.302 251.946V228.929C192.302 227.256 193.656 225.902 195.329 225.902H196.959C198.632 225.902 199.986 227.256 199.986 228.929V251.946C199.986 253.619 198.632 254.973 196.959 254.973Z" fill="white"/>
<path d="M175.037 254.303H172.811C171.303 254.303 170.08 253.08 170.08 251.572V243.68C170.08 242.172 171.303 240.949 172.811 240.949H175.037C176.545 240.949 177.768 242.172 177.768 243.68V251.572C177.768 253.083 176.545 254.303 175.037 254.303Z" fill="white"/>
<path d="M185.863 260.44H183.637C182.129 260.44 180.906 259.217 180.906 257.709V249.817C180.906 248.309 182.129 247.086 183.637 247.086H185.863C187.371 247.086 188.594 248.309 188.594 249.817V257.709C188.594 259.217 187.371 260.44 185.863 260.44Z" fill="white"/>
<path d="M207.057 267.004H204.831C203.323 267.004 202.101 265.782 202.101 264.274V256.381C202.101 254.873 203.323 253.65 204.831 253.65H207.057C208.565 253.65 209.788 254.873 209.788 256.381V264.274C209.785 265.782 208.565 267.004 207.057 267.004Z" fill="white"/>
</g>
<g opacity="0.6">
<path d="M254.647 234.658H254.331V228.327H252.737V234.658H252.421C250.913 234.658 249.69 235.881 249.69 237.389V252.239C249.69 253.747 250.913 254.97 252.421 254.97H252.737V261.301H254.331V254.97H254.647C256.155 254.97 257.378 253.747 257.378 252.239V237.389C257.378 235.881 256.155 234.658 254.647 234.658Z" fill="white"/>
<path d="M313.151 227.538H312.835V212.744H311.241V227.538H310.925C309.417 227.538 308.194 228.761 308.194 230.268V245.119C308.194 246.627 309.417 247.85 310.925 247.85H313.151C314.659 247.85 315.882 246.627 315.882 245.119V230.268C315.879 228.761 314.659 227.538 313.151 227.538Z" fill="white"/>
<path d="M289.75 212.508H289.433V206.177H287.84V212.508H287.524C286.016 212.508 284.793 213.731 284.793 215.238V230.089C284.793 231.597 286.016 232.82 287.524 232.82H287.84V239.15H289.433V232.82H289.75C291.258 232.82 292.48 231.597 292.48 230.089V215.238C292.478 213.731 291.258 212.508 289.75 212.508Z" fill="white"/>
<path d="M380.33 234.162H380.013V227.831H378.42V234.162H378.104C376.596 234.162 375.373 235.385 375.373 236.893V251.743C375.373 253.251 376.596 254.474 378.104 254.474H378.42V260.805H380.013V254.474H380.33C381.838 254.474 383.061 253.251 383.061 251.743V236.893C383.058 235.382 381.838 234.162 380.33 234.162Z" fill="white"/>
<path d="M278.049 195.363H275.822C274.315 195.363 273.092 196.586 273.092 198.093V212.944C273.092 214.452 274.315 215.675 275.822 215.675H276.139V228.601H277.732V215.675H278.049C279.556 215.675 280.779 214.452 280.779 212.944V198.093C280.779 196.586 279.556 195.363 278.049 195.363Z" fill="white"/>
<path d="M301.451 229.219H299.225C297.717 229.219 296.494 230.442 296.494 231.95V246.801C296.494 248.309 297.717 249.531 299.225 249.531H299.541V262.458H301.135V249.531H301.451C302.959 249.531 304.182 248.309 304.182 246.801V231.95C304.179 230.442 302.959 229.219 301.451 229.219Z" fill="white"/>
<path d="M242.947 242.813H242.631V236.482H241.037V242.813H240.721C239.213 242.813 237.99 244.036 237.99 245.544V260.394C237.99 261.902 239.213 263.125 240.721 263.125H241.037V269.456H242.631V263.125H242.947C244.455 263.125 245.678 261.902 245.678 260.394V245.544C245.678 244.036 244.455 242.813 242.947 242.813Z" fill="white"/>
<path d="M231.246 249.386H230.929V243.055H229.336V249.386H229.02C227.512 249.386 226.289 250.609 226.289 252.117V266.967C226.289 268.475 227.512 269.698 229.02 269.698H229.336V276.029H230.929V269.698H231.246C232.754 269.698 233.977 268.475 233.977 266.967V252.117C233.977 250.609 232.754 249.386 231.246 249.386Z" fill="white"/>
<path d="M266.052 236.16H264.422C262.748 236.16 261.395 234.806 261.395 233.133V194.476C261.395 192.803 262.748 191.449 264.422 191.449H266.052C267.725 191.449 269.079 192.803 269.079 194.476V233.133C269.079 234.806 267.722 236.16 266.052 236.16Z" fill="white"/>
<path d="M324.553 239.547H322.923C321.249 239.547 319.896 238.193 319.896 236.519V197.862C319.896 196.189 321.249 194.835 322.923 194.835H324.553C326.226 194.835 327.58 196.189 327.58 197.862V236.519C327.58 238.193 326.226 239.547 324.553 239.547Z" fill="white"/>
<path d="M358.477 227.276H356.846C355.173 227.276 353.819 225.922 353.819 224.248V201.232C353.819 199.558 355.173 198.204 356.846 198.204H358.477C360.15 198.204 361.504 199.558 361.504 201.232V224.248C361.504 225.922 360.15 227.276 358.477 227.276Z" fill="white"/>
<path d="M336.554 226.606H334.327C332.819 226.606 331.597 225.383 331.597 223.875V215.982C331.597 214.475 332.819 213.252 334.327 213.252H336.554C338.061 213.252 339.284 214.475 339.284 215.982V223.875C339.281 225.386 338.061 226.606 336.554 226.606Z" fill="white"/>
<path d="M347.379 232.743H345.153C343.645 232.743 342.422 231.52 342.422 230.012V222.119C342.422 220.611 343.645 219.389 345.153 219.389H347.379C348.887 219.389 350.109 220.611 350.109 222.119V230.012C350.107 231.52 348.887 232.743 347.379 232.743Z" fill="white"/>
<path d="M368.574 239.307H366.348C364.84 239.307 363.617 238.084 363.617 236.576V228.684C363.617 227.176 364.84 225.953 366.348 225.953H368.574C370.082 225.953 371.305 227.176 371.305 228.684V236.576C371.302 238.084 370.082 239.307 368.574 239.307Z" fill="white"/>
</g>
<g opacity="0.6">
<path d="M417.435 192.313H417.119V185.982H415.526V192.313H415.209C413.701 192.313 412.479 193.536 412.479 195.044V209.894C412.479 211.402 413.701 212.625 415.209 212.625H415.526V218.955H417.119V212.625H417.435C418.943 212.625 420.166 211.402 420.166 209.894V195.044C420.166 193.536 418.943 192.313 417.435 192.313Z" fill="white"/>
<path d="M475.939 185.193H475.623V170.399H474.029V185.193H473.713C472.205 185.193 470.982 186.415 470.982 187.923V202.774C470.982 204.282 472.205 205.505 473.713 205.505H475.939C477.447 205.505 478.67 204.282 478.67 202.774V187.923C478.67 186.415 477.447 185.193 475.939 185.193Z" fill="white"/>
<path d="M452.538 170.165H452.221V163.835H450.628V170.165H450.312C448.804 170.165 447.581 171.388 447.581 172.896V187.747C447.581 189.254 448.804 190.477 450.312 190.477H450.628V196.808H452.221V190.477H452.538C454.046 190.477 455.269 189.254 455.269 187.747V172.896C455.269 171.385 454.046 170.165 452.538 170.165Z" fill="white"/>
<path d="M543.118 191.817H542.802V185.486H541.208V191.817H540.892C539.384 191.817 538.161 193.04 538.161 194.548V209.398C538.161 210.906 539.384 212.129 540.892 212.129H541.208V218.46H542.802V212.129H543.118C544.626 212.129 545.849 210.906 545.849 209.398V194.548C545.849 193.04 544.626 191.817 543.118 191.817Z" fill="white"/>
<path d="M440.838 153.017H438.612C437.104 153.017 435.881 154.24 435.881 155.748V170.599C435.881 172.106 437.104 173.329 438.612 173.329H438.928V186.256H440.521V173.329H440.838C442.346 173.329 443.568 172.106 443.568 170.599V155.748C443.568 154.24 442.346 153.017 440.838 153.017Z" fill="white"/>
<path d="M464.239 186.877H462.013C460.505 186.877 459.282 188.1 459.282 189.608V204.458C459.282 205.966 460.505 207.189 462.013 207.189H462.329V220.115H463.923V207.189H464.239C465.747 207.189 466.97 205.966 466.97 204.458V189.608C466.97 188.097 465.747 186.877 464.239 186.877Z" fill="white"/>
<path d="M405.735 200.471H405.419V194.14H403.825V200.471H403.509C402.001 200.471 400.778 201.694 400.778 203.201V218.052C400.778 219.56 402.001 220.783 403.509 220.783H403.825V227.113H405.419V220.783H405.735C407.243 220.783 408.466 219.56 408.466 218.052V203.201C408.466 201.694 407.243 200.471 405.735 200.471Z" fill="white"/>
<path d="M394.034 207.044H393.718V200.713H392.124V207.044H391.808C390.3 207.044 389.077 208.266 389.077 209.774V224.625C389.077 226.133 390.3 227.355 391.808 227.355H392.124V233.686H393.718V227.355H394.034C395.542 227.355 396.765 226.133 396.765 224.625V209.774C396.765 208.266 395.542 207.044 394.034 207.044Z" fill="white"/>
<path d="M428.839 193.818H427.209C425.538 193.818 424.182 192.464 424.182 190.791V152.134C424.182 150.461 425.536 149.107 427.209 149.107H428.839C430.512 149.107 431.866 150.461 431.866 152.134V190.791C431.866 192.461 430.509 193.818 428.839 193.818Z" fill="white"/>
<path d="M487.344 197.201H485.714C484.043 197.201 482.687 195.847 482.687 194.174V155.517C482.687 153.844 484.04 152.49 485.714 152.49H487.344C489.017 152.49 490.371 153.844 490.371 155.517V194.174C490.371 195.847 489.014 197.201 487.344 197.201Z" fill="white"/>
<path d="M521.267 184.933H519.637C517.966 184.933 516.609 183.579 516.609 181.906V158.889C516.609 157.216 517.963 155.862 519.637 155.862H521.267C522.937 155.862 524.294 157.216 524.294 158.889V181.906C524.294 183.576 522.937 184.933 521.267 184.933Z" fill="white"/>
<path d="M499.342 184.263H497.115C495.608 184.263 494.385 183.041 494.385 181.533V173.64C494.385 172.132 495.608 170.909 497.115 170.909H499.342C500.849 170.909 502.072 172.132 502.072 173.64V181.533C502.072 183.041 500.849 184.263 499.342 184.263Z" fill="white"/>
<path d="M510.168 190.397H507.942C506.434 190.397 505.211 189.175 505.211 187.667V179.774C505.211 178.266 506.434 177.043 507.942 177.043H510.168C511.676 177.043 512.898 178.266 512.898 179.774V187.667C512.898 189.175 511.676 190.397 510.168 190.397Z" fill="white"/>
<path d="M531.363 196.962H529.137C527.629 196.962 526.406 195.739 526.406 194.231V186.338C526.406 184.831 527.629 183.608 529.137 183.608H531.363C532.871 183.608 534.094 184.831 534.094 186.338V194.231C534.094 195.739 532.871 196.962 531.363 196.962Z" fill="white"/>
</g>
<path d="M415.185 136.2H417.468V136.964H415.185V139.324H414.415V136.964H412.144V136.2H414.415V133.828H415.185V136.2Z" fill="white"/>
<path d="M423.939 140.587H418.611V139.794L420.746 137.648C421.396 136.989 421.827 136.519 422.032 136.24C422.24 135.96 422.394 135.687 422.496 135.419C422.599 135.154 422.65 134.866 422.65 134.561C422.65 134.128 422.519 133.786 422.257 133.532C421.995 133.278 421.63 133.153 421.165 133.153C420.829 133.153 420.51 133.207 420.21 133.318C419.908 133.429 419.575 133.632 419.204 133.922L418.717 133.295C419.464 132.674 420.276 132.363 421.157 132.363C421.918 132.363 422.513 132.557 422.947 132.948C423.38 133.338 423.597 133.863 423.597 134.518C423.597 135.031 423.451 135.541 423.163 136.043C422.876 136.545 422.334 137.18 421.544 137.95L419.771 139.686V139.732H423.939V140.587Z" fill="white"/>
<path d="M425.393 139.999C425.393 139.751 425.45 139.563 425.561 139.438C425.675 139.31 425.834 139.247 426.045 139.247C426.259 139.247 426.427 139.31 426.547 139.438C426.667 139.566 426.727 139.754 426.727 139.999C426.727 140.239 426.667 140.424 426.544 140.552C426.422 140.681 426.256 140.746 426.045 140.746C425.857 140.746 425.7 140.689 425.578 140.572C425.455 140.456 425.393 140.265 425.393 139.999Z" fill="white"/>
<path d="M430.808 132.366C431.546 132.366 432.133 132.537 432.567 132.882C433 133.227 433.217 133.7 433.217 134.307C433.217 134.706 433.091 135.071 432.846 135.399C432.598 135.727 432.202 136.026 431.66 136.297C432.319 136.61 432.786 136.941 433.063 137.286C433.339 137.631 433.479 138.033 433.479 138.486C433.479 139.159 433.245 139.694 432.775 140.096C432.304 140.498 431.663 140.698 430.845 140.698C429.981 140.698 429.314 140.51 428.85 140.131C428.385 139.751 428.151 139.216 428.151 138.52C428.151 137.591 428.716 136.87 429.847 136.354C429.337 136.066 428.972 135.755 428.75 135.419C428.528 135.083 428.416 134.709 428.416 134.296C428.416 133.709 428.633 133.241 429.069 132.891C429.5 132.54 430.078 132.366 430.808 132.366ZM429.055 138.54C429.055 138.985 429.209 139.33 429.517 139.578C429.825 139.826 430.258 139.948 430.816 139.948C431.367 139.948 431.797 139.82 432.102 139.56C432.41 139.301 432.561 138.948 432.561 138.497C432.561 138.138 432.416 137.819 432.128 137.542C431.84 137.263 431.338 136.992 430.62 136.73C430.07 136.967 429.671 137.229 429.423 137.514C429.18 137.799 429.055 138.141 429.055 138.54ZM430.797 133.113C430.335 133.113 429.973 133.224 429.711 133.446C429.448 133.669 429.317 133.965 429.317 134.333C429.317 134.672 429.425 134.966 429.645 135.208C429.864 135.453 430.266 135.695 430.854 135.94C431.381 135.718 431.757 135.482 431.977 135.225C432.196 134.971 432.307 134.672 432.307 134.333C432.307 133.959 432.173 133.663 431.905 133.444C431.635 133.224 431.264 133.113 430.797 133.113Z" fill="white"/>
<path d="M440.326 138.722H439.123V140.584H438.242V138.722H434.3V137.919L438.148 132.437H439.123V137.887H440.326V138.722ZM438.242 137.887V135.194C438.242 134.666 438.262 134.068 438.296 133.404H438.25C438.074 133.757 437.906 134.054 437.752 134.284L435.218 137.887H438.242Z" fill="white"/>
<path d="M511.297 140.832H513.58V141.596H511.297V143.959H510.528V141.596H508.256V140.832H510.528V138.46H511.297V140.832Z" fill="white"/>
<path d="M520.093 141.154C520.093 142.554 519.871 143.6 519.432 144.292C518.99 144.982 518.314 145.33 517.405 145.33C516.533 145.33 515.869 144.976 515.416 144.269C514.962 143.563 514.734 142.525 514.734 141.157C514.734 139.746 514.954 138.697 515.393 138.013C515.832 137.329 516.504 136.987 517.405 136.987C518.283 136.987 518.953 137.343 519.409 138.056C519.865 138.768 520.093 139.803 520.093 141.154ZM515.664 141.154C515.664 142.334 515.803 143.192 516.08 143.728C516.356 144.267 516.798 144.535 517.405 144.535C518.018 144.535 518.463 144.261 518.739 143.716C519.016 143.172 519.152 142.317 519.152 141.154C519.152 139.991 519.016 139.136 518.739 138.594C518.463 138.053 518.018 137.782 517.405 137.782C516.798 137.782 516.356 138.05 516.08 138.583C515.803 139.119 515.664 139.977 515.664 141.154Z" fill="white"/>
<path d="M521.501 144.628C521.501 144.38 521.558 144.192 521.669 144.067C521.78 143.942 521.943 143.876 522.154 143.876C522.367 143.876 522.536 143.939 522.655 144.067C522.775 144.195 522.835 144.383 522.835 144.628C522.835 144.868 522.775 145.053 522.652 145.181C522.53 145.31 522.365 145.375 522.154 145.375C521.966 145.375 521.809 145.318 521.686 145.201C521.564 145.087 521.501 144.896 521.501 144.628Z" fill="white"/>
<path d="M526.917 136.995C527.656 136.995 528.243 137.166 528.676 137.511C529.109 137.856 529.326 138.329 529.326 138.936C529.326 139.335 529.2 139.7 528.955 140.028C528.71 140.356 528.311 140.655 527.77 140.926C528.428 141.239 528.895 141.57 529.172 141.915C529.448 142.26 529.588 142.662 529.588 143.115C529.588 143.788 529.354 144.324 528.884 144.726C528.414 145.127 527.772 145.327 526.954 145.327C526.091 145.327 525.424 145.139 524.959 144.76C524.494 144.381 524.261 143.845 524.261 143.149C524.261 142.22 524.825 141.499 525.957 140.983C525.446 140.695 525.082 140.384 524.859 140.048C524.637 139.715 524.526 139.338 524.526 138.925C524.526 138.338 524.742 137.87 525.179 137.52C525.615 137.169 526.19 136.995 526.917 136.995ZM525.167 143.172C525.167 143.617 525.321 143.962 525.629 144.21C525.937 144.458 526.37 144.58 526.929 144.58C527.479 144.58 527.909 144.452 528.214 144.192C528.522 143.933 528.673 143.58 528.673 143.129C528.673 142.77 528.528 142.451 528.24 142.174C527.952 141.895 527.45 141.624 526.732 141.362C526.182 141.599 525.783 141.861 525.535 142.146C525.29 142.431 525.167 142.773 525.167 143.172ZM526.906 137.745C526.444 137.745 526.082 137.856 525.82 138.078C525.558 138.301 525.427 138.597 525.427 138.965C525.427 139.304 525.535 139.598 525.754 139.84C525.974 140.085 526.376 140.327 526.963 140.572C527.49 140.35 527.866 140.114 528.086 139.857C528.305 139.603 528.417 139.304 528.417 138.965C528.417 138.591 528.283 138.295 528.015 138.076C527.744 137.856 527.376 137.745 526.906 137.745Z" fill="white"/>
<path d="M536.435 143.354H535.232V145.216H534.351V143.354H530.409V142.551L534.257 137.069H535.232V142.519H536.435V143.354ZM534.351 142.516V139.823C534.351 139.295 534.371 138.697 534.405 138.033H534.36C534.183 138.386 534.015 138.683 533.861 138.914L531.327 142.516H534.351Z" fill="white"/>
<path d="M449.667 148.385V147.542H452.389V148.385H449.667Z" fill="white"/>
<path d="M458.78 146.943C458.78 148.343 458.557 149.389 458.118 150.081C457.677 150.771 457.001 151.119 456.092 151.119C455.22 151.119 454.555 150.765 454.102 150.059C453.649 149.352 453.421 148.314 453.421 146.946C453.421 145.535 453.64 144.486 454.079 143.802C454.518 143.118 455.191 142.776 456.092 142.776C456.97 142.776 457.639 143.132 458.096 143.845C458.552 144.557 458.78 145.592 458.78 146.943ZM454.35 146.943C454.35 148.123 454.49 148.981 454.766 149.517C455.043 150.056 455.485 150.324 456.092 150.324C456.705 150.324 457.149 150.05 457.426 149.506C457.702 148.961 457.839 148.106 457.839 146.943C457.839 145.78 457.702 144.925 457.426 144.383C457.149 143.842 456.705 143.571 456.092 143.571C455.485 143.571 455.043 143.839 454.766 144.372C454.49 144.908 454.35 145.766 454.35 146.943Z" fill="white"/>
<path d="M460.188 150.42C460.188 150.172 460.245 149.984 460.356 149.859C460.467 149.734 460.629 149.668 460.84 149.668C461.054 149.668 461.222 149.731 461.342 149.859C461.462 149.987 461.521 150.175 461.521 150.42C461.521 150.66 461.462 150.845 461.339 150.973C461.217 151.102 461.051 151.167 460.84 151.167C460.652 151.167 460.495 151.11 460.373 150.993C460.247 150.877 460.188 150.686 460.188 150.42Z" fill="white"/>
<path d="M466.331 151.008H465.433V145.23C465.433 144.751 465.447 144.295 465.479 143.868C465.402 143.944 465.313 144.027 465.219 144.113C465.122 144.198 464.683 144.557 463.9 145.193L463.412 144.56L465.558 142.901H466.334V151.008H466.331Z" fill="white"/>
<path d="M474.785 146.943C474.785 148.343 474.562 149.389 474.123 150.081C473.681 150.771 473.006 151.119 472.097 151.119C471.224 151.119 470.56 150.765 470.107 150.059C469.654 149.352 469.426 148.314 469.426 146.946C469.426 145.535 469.645 144.486 470.084 143.802C470.523 143.118 471.196 142.776 472.097 142.776C472.975 142.776 473.644 143.132 474.1 143.845C474.557 144.557 474.785 145.592 474.785 146.943ZM470.355 146.943C470.355 148.123 470.495 148.981 470.771 149.517C471.048 150.056 471.489 150.324 472.097 150.324C472.709 150.324 473.154 150.05 473.431 149.506C473.707 148.961 473.844 148.106 473.844 146.943C473.844 145.78 473.707 144.925 473.431 144.383C473.154 143.842 472.709 143.571 472.097 143.571C471.489 143.571 471.048 143.839 470.771 144.372C470.492 144.908 470.355 145.766 470.355 146.943Z" fill="white"/>
<path d="M56.4496 258.473H58.7327V259.237H56.4496V261.597H55.68V259.237H53.4082V258.473H55.68V256.102H56.4496V258.473Z" fill="white"/>
<path d="M65.2454 258.795C65.2454 260.195 65.0231 261.241 64.5842 261.933C64.1423 262.623 63.4668 262.971 62.5575 262.971C61.6853 262.971 61.0212 262.618 60.568 261.911C60.1148 261.204 59.8867 260.166 59.8867 258.798C59.8867 257.387 60.1062 256.338 60.5452 255.654C60.9841 254.97 61.6568 254.628 62.5575 254.628C63.4355 254.628 64.1053 254.984 64.5614 255.697C65.0174 256.409 65.2454 257.444 65.2454 258.795ZM60.8159 258.795C60.8159 259.975 60.9556 260.833 61.2321 261.369C61.5086 261.908 61.9504 262.176 62.5575 262.176C63.1704 262.176 63.615 261.902 63.8915 261.358C64.168 260.813 64.3048 259.958 64.3048 258.795C64.3048 257.632 64.168 256.777 63.8915 256.236C63.615 255.694 63.1704 255.423 62.5575 255.423C61.9504 255.423 61.5086 255.691 61.2321 256.224C60.9556 256.76 60.8159 257.618 60.8159 258.795Z" fill="white"/>
<path d="M66.6533 262.273C66.6533 262.025 66.7103 261.837 66.8215 261.711C66.9355 261.583 67.0951 261.52 67.3061 261.52C67.5198 261.52 67.688 261.583 67.8077 261.711C67.9274 261.839 67.9873 262.027 67.9873 262.273C67.9873 262.512 67.9275 262.697 67.8049 262.826C67.6823 262.954 67.517 263.019 67.3061 263.019C67.1179 263.019 66.9612 262.962 66.8386 262.846C66.716 262.729 66.6533 262.538 66.6533 262.273Z" fill="white"/>
<path d="M74.7141 262.86H69.3867V262.067L71.5217 259.921C72.1715 259.263 72.602 258.792 72.8072 258.513C73.0153 258.234 73.1692 257.96 73.2718 257.692C73.3744 257.427 73.4257 257.139 73.4257 256.834C73.4257 256.401 73.2946 256.059 73.0324 255.805C72.7701 255.551 72.4053 255.426 71.9407 255.426C71.6043 255.426 71.2851 255.48 70.9858 255.591C70.6836 255.703 70.3502 255.905 69.9796 256.196L69.4922 255.569C70.239 254.947 71.0513 254.636 71.9321 254.636C72.6932 254.636 73.2889 254.83 73.7221 255.221C74.1554 255.611 74.372 256.136 74.372 256.791C74.372 257.304 74.2267 257.815 73.9388 258.316C73.6509 258.818 73.1093 259.454 72.3198 260.223L70.5468 261.959V262.005H74.7141V262.86Z" fill="white"/>
<path d="M81.2503 258.795C81.2503 260.195 81.028 261.241 80.589 261.933C80.1472 262.623 79.4717 262.971 78.5624 262.971C77.6902 262.971 77.026 262.618 76.5728 261.911C76.1196 261.204 75.8916 260.166 75.8916 258.798C75.8916 257.387 76.1111 256.338 76.55 255.654C76.989 254.97 77.6617 254.628 78.5624 254.628C79.4432 254.628 80.1102 254.984 80.5662 255.697C81.0223 256.409 81.2503 257.444 81.2503 258.795ZM76.8208 258.795C76.8208 259.975 76.9605 260.833 77.237 261.369C77.5135 261.905 77.9553 262.176 78.5624 262.176C79.1752 262.176 79.6199 261.902 79.8964 261.358C80.1729 260.813 80.3097 259.958 80.3097 258.795C80.3097 257.632 80.1729 256.777 79.8964 256.236C79.6199 255.694 79.1752 255.423 78.5624 255.423C77.9553 255.423 77.5135 255.691 77.237 256.224C76.9576 256.76 76.8208 257.618 76.8208 258.795Z" fill="white"/>
<path d="M385.677 183.32H387.96V184.084H385.677V186.447H384.907V184.084H382.636V183.32H384.907V180.948H385.677V183.32Z" fill="white"/>
<path d="M394.475 183.639C394.475 185.039 394.253 186.085 393.814 186.777C393.375 187.47 392.696 187.815 391.787 187.815C390.915 187.815 390.251 187.461 389.797 186.755C389.344 186.048 389.116 185.01 389.116 183.642C389.116 182.231 389.336 181.182 389.775 180.498C390.214 179.814 390.886 179.472 391.787 179.472C392.665 179.472 393.335 179.828 393.791 180.541C394.247 181.253 394.475 182.288 394.475 183.639ZM390.045 183.639C390.045 184.819 390.185 185.677 390.462 186.213C390.738 186.749 391.18 187.02 391.787 187.02C392.4 187.02 392.844 186.746 393.121 186.202C393.397 185.657 393.534 184.802 393.534 183.639C393.534 182.476 393.397 181.621 393.121 181.079C392.844 180.538 392.4 180.267 391.787 180.267C391.18 180.267 390.738 180.535 390.462 181.068C390.185 181.601 390.045 182.462 390.045 183.639Z" fill="white"/>
<path d="M395.885 187.117C395.885 186.869 395.942 186.68 396.053 186.555C396.167 186.427 396.327 186.364 396.537 186.364C396.751 186.364 396.919 186.427 397.039 186.555C397.159 186.683 397.219 186.871 397.219 187.117C397.219 187.356 397.159 187.541 397.036 187.669C396.914 187.798 396.748 187.863 396.537 187.863C396.349 187.863 396.193 187.806 396.07 187.689C395.945 187.573 395.885 187.382 395.885 187.117Z" fill="white"/>
<path d="M401.299 179.483C402.037 179.483 402.625 179.654 403.058 179.999C403.491 180.344 403.708 180.817 403.708 181.424C403.708 181.823 403.582 182.188 403.337 182.516C403.089 182.844 402.693 183.146 402.151 183.414C402.81 183.727 403.277 184.058 403.554 184.403C403.83 184.748 403.97 185.15 403.97 185.603C403.97 186.276 403.736 186.812 403.266 187.213C402.796 187.615 402.154 187.815 401.336 187.815C400.473 187.815 399.806 187.627 399.341 187.248C398.876 186.869 398.643 186.333 398.643 185.637C398.643 184.708 399.207 183.987 400.339 183.471C399.828 183.183 399.464 182.872 399.241 182.536C399.019 182.2 398.908 181.826 398.908 181.413C398.908 180.826 399.124 180.358 399.56 180.008C399.988 179.657 400.569 179.483 401.299 179.483ZM399.546 185.657C399.546 186.102 399.7 186.447 400.008 186.695C400.316 186.943 400.749 187.065 401.308 187.065C401.858 187.065 402.288 186.937 402.593 186.678C402.901 186.418 403.052 186.065 403.052 185.614C403.052 185.255 402.907 184.936 402.619 184.659C402.331 184.38 401.829 184.109 401.111 183.847C400.561 184.084 400.162 184.346 399.914 184.631C399.672 184.916 399.546 185.258 399.546 185.657ZM401.288 180.23C400.826 180.23 400.464 180.341 400.202 180.563C399.94 180.786 399.808 181.082 399.808 181.45C399.808 181.789 399.917 182.083 400.136 182.325C400.356 182.567 400.758 182.812 401.345 183.058C401.872 182.835 402.248 182.599 402.468 182.342C402.687 182.088 402.798 181.789 402.798 181.45C402.798 181.077 402.664 180.78 402.397 180.561C402.126 180.341 401.755 180.23 401.288 180.23Z" fill="white"/>
<path d="M406.135 187.704L409.495 180.447H405.077V179.597H410.47V180.336L407.155 187.704H406.135Z" fill="white"/>
<path d="M91.6742 209.341H93.9574V210.105H91.6742V212.465H90.9046V210.105H88.6328V209.341H90.9046V206.969H91.6742V209.341Z" fill="white"/>
<path d="M100.471 209.66C100.471 211.06 100.249 212.106 99.8097 212.798C99.3679 213.488 98.6924 213.836 97.7831 213.836C96.9109 213.836 96.2468 213.483 95.7936 212.776C95.3403 212.069 95.1123 211.031 95.1123 209.663C95.1123 208.252 95.3318 207.203 95.7707 206.519C96.2097 205.835 96.8824 205.493 97.7831 205.493C98.6639 205.493 99.3309 205.849 99.7869 206.562C100.243 207.274 100.471 208.309 100.471 209.66ZM96.0415 209.66C96.0415 210.84 96.1812 211.698 96.4577 212.234C96.7342 212.77 97.176 213.041 97.7831 213.041C98.396 213.041 98.8406 212.767 99.1171 212.223C99.3936 211.678 99.5304 210.823 99.5304 209.66C99.5304 208.497 99.3936 207.642 99.1171 207.101C98.8406 206.559 98.396 206.288 97.7831 206.288C97.176 206.288 96.7342 206.556 96.4577 207.089C96.1812 207.625 96.0415 208.483 96.0415 209.66Z" fill="white"/>
<path d="M101.878 213.138C101.878 212.89 101.935 212.702 102.046 212.576C102.16 212.448 102.32 212.385 102.531 212.385C102.744 212.385 102.913 212.448 103.032 212.576C103.152 212.704 103.212 212.893 103.212 213.138C103.212 213.377 103.152 213.562 103.029 213.691C102.907 213.819 102.742 213.885 102.531 213.885C102.343 213.885 102.186 213.828 102.063 213.711C101.941 213.594 101.878 213.403 101.878 213.138Z" fill="white"/>
<path d="M107.294 205.504C108.033 205.504 108.62 205.675 109.053 206.02C109.486 206.365 109.703 206.838 109.703 207.445C109.703 207.845 109.577 208.209 109.332 208.537C109.084 208.865 108.688 209.164 108.147 209.435C108.805 209.749 109.272 210.079 109.549 210.424C109.825 210.769 109.965 211.171 109.965 211.624C109.965 212.297 109.731 212.833 109.261 213.235C108.791 213.637 108.149 213.836 107.331 213.836C106.468 213.836 105.801 213.648 105.336 213.269C104.871 212.89 104.638 212.354 104.638 211.658C104.638 210.729 105.202 210.008 106.334 209.492C105.823 209.204 105.459 208.893 105.236 208.557C105.014 208.224 104.903 207.847 104.903 207.434C104.903 206.847 105.119 206.379 105.556 206.029C105.986 205.678 106.567 205.504 107.294 205.504ZM105.544 211.678C105.544 212.123 105.698 212.468 106.006 212.716C106.314 212.964 106.747 213.086 107.306 213.086C107.856 213.086 108.286 212.958 108.591 212.699C108.899 212.439 109.05 212.086 109.05 211.636C109.05 211.276 108.905 210.957 108.617 210.681C108.329 210.401 107.827 210.131 107.109 209.868C106.559 210.105 106.16 210.367 105.912 210.652C105.667 210.937 105.544 211.279 105.544 211.678ZM107.283 206.251C106.821 206.251 106.459 206.362 106.197 206.585C105.935 206.807 105.804 207.103 105.804 207.471C105.804 207.81 105.912 208.104 106.131 208.346C106.351 208.591 106.753 208.834 107.34 209.079C107.867 208.856 108.243 208.62 108.463 208.363C108.682 208.11 108.794 207.81 108.794 207.471C108.794 207.098 108.66 206.801 108.392 206.582C108.121 206.362 107.753 206.251 107.283 206.251Z" fill="white"/>
<path d="M116.816 211.861H115.613V213.722H114.732V211.861H110.79V211.057L114.638 205.576H115.613V211.026H116.816V211.861ZM114.729 211.026V208.332C114.729 207.805 114.749 207.206 114.783 206.542H114.738C114.561 206.895 114.393 207.192 114.239 207.423L111.705 211.026H114.729Z" fill="white"/>
<path d="M251.394 181.547H253.677V182.311H251.394V184.671H250.624V182.311H248.353V181.547H250.624V179.175H251.394V181.547Z" fill="white"/>
<path d="M260.148 185.934H254.82V185.141L256.955 182.995C257.605 182.336 258.036 181.866 258.241 181.587C258.449 181.307 258.603 181.034 258.705 180.766C258.808 180.501 258.859 180.213 258.859 179.908C258.859 179.475 258.728 179.133 258.466 178.879C258.204 178.625 257.839 178.5 257.374 178.5C257.038 178.5 256.719 178.554 256.419 178.665C256.12 178.776 255.784 178.979 255.413 179.269L254.926 178.642C255.673 178.021 256.485 177.71 257.366 177.71C258.127 177.71 258.722 177.904 259.156 178.295C259.589 178.685 259.806 179.209 259.806 179.865C259.806 180.378 259.66 180.888 259.372 181.39C259.084 181.892 258.543 182.527 257.753 183.297L255.98 185.033V185.078H260.148V185.934Z" fill="white"/>
<path d="M261.598 185.346C261.598 185.098 261.655 184.91 261.766 184.785C261.88 184.657 262.039 184.594 262.25 184.594C262.464 184.594 262.632 184.657 262.752 184.785C262.872 184.913 262.932 185.101 262.932 185.346C262.932 185.586 262.872 185.771 262.749 185.899C262.627 186.028 262.461 186.093 262.25 186.093C262.062 186.093 261.906 186.036 261.783 185.919C261.66 185.802 261.598 185.611 261.598 185.346Z" fill="white"/>
<path d="M269.659 181.287C269.659 184.457 268.431 186.045 265.98 186.045C265.552 186.045 265.21 186.008 264.959 185.934V185.141C265.256 185.238 265.592 185.286 265.968 185.286C266.855 185.286 267.524 185.013 267.978 184.463C268.431 183.913 268.676 183.072 268.719 181.937H268.653C268.451 182.245 268.18 182.479 267.844 182.638C267.507 182.798 267.128 182.881 266.706 182.881C265.988 182.881 265.421 182.667 264.999 182.237C264.577 181.809 264.366 181.208 264.366 180.441C264.366 179.597 264.603 178.933 265.073 178.446C265.543 177.958 266.165 177.713 266.932 177.713C267.482 177.713 267.963 177.856 268.377 178.138C268.79 178.42 269.106 178.833 269.329 179.375C269.548 179.913 269.659 180.552 269.659 181.287ZM266.932 178.5C266.404 178.5 265.994 178.671 265.706 179.01C265.418 179.349 265.273 179.822 265.273 180.429C265.273 180.962 265.407 181.381 265.672 181.686C265.937 181.991 266.342 182.142 266.886 182.142C267.222 182.142 267.533 182.074 267.815 181.937C268.097 181.8 268.32 181.612 268.482 181.379C268.645 181.142 268.727 180.894 268.727 180.635C268.727 180.247 268.65 179.888 268.499 179.56C268.348 179.232 268.137 178.973 267.864 178.785C267.593 178.594 267.282 178.5 266.932 178.5Z" fill="white"/>
<path d="M273.508 177.71C274.246 177.71 274.833 177.881 275.264 178.226C275.697 178.571 275.914 179.044 275.914 179.651C275.914 180.05 275.788 180.415 275.543 180.743C275.295 181.071 274.899 181.37 274.357 181.641C275.016 181.954 275.483 182.285 275.76 182.63C276.036 182.975 276.176 183.377 276.176 183.83C276.176 184.503 275.942 185.039 275.472 185.44C275.002 185.842 274.36 186.042 273.542 186.042C272.679 186.042 272.012 185.854 271.547 185.475C271.082 185.096 270.849 184.56 270.849 183.864C270.849 182.935 271.413 182.214 272.545 181.698C272.034 181.41 271.67 181.099 271.447 180.763C271.225 180.429 271.114 180.053 271.114 179.64C271.114 179.053 271.33 178.585 271.766 178.235C272.197 177.887 272.778 177.71 273.508 177.71ZM271.755 183.887C271.755 184.332 271.909 184.677 272.217 184.925C272.525 185.173 272.958 185.295 273.517 185.295C274.067 185.295 274.497 185.167 274.802 184.907C275.11 184.648 275.261 184.295 275.261 183.844C275.261 183.485 275.116 183.166 274.828 182.889C274.54 182.61 274.038 182.339 273.32 182.077C272.77 182.314 272.371 182.576 272.123 182.861C271.878 183.146 271.755 183.488 271.755 183.887ZM273.497 178.46C273.035 178.46 272.673 178.571 272.411 178.793C272.148 179.016 272.017 179.312 272.017 179.68C272.017 180.019 272.126 180.313 272.345 180.555C272.565 180.8 272.966 181.042 273.554 181.287C274.081 181.065 274.457 180.829 274.677 180.572C274.896 180.318 275.007 180.019 275.007 179.68C275.007 179.306 274.873 179.01 274.605 178.79C274.338 178.571 273.964 178.46 273.497 178.46Z" fill="white"/>
<path d="M129.066 229.644V228.801H131.789V229.644H129.066Z" fill="white"/>
<path d="M138.179 228.202C138.179 229.602 137.957 230.648 137.518 231.34C137.076 232.03 136.4 232.378 135.491 232.378C134.619 232.378 133.955 232.024 133.502 231.318C133.048 230.611 132.82 229.573 132.82 228.205C132.82 226.794 133.04 225.745 133.479 225.061C133.918 224.377 134.59 224.035 135.491 224.035C136.369 224.035 137.039 224.391 137.495 225.104C137.951 225.816 138.179 226.851 138.179 228.202ZM133.75 228.202C133.75 229.382 133.889 230.24 134.166 230.776C134.442 231.312 134.884 231.583 135.491 231.583C136.104 231.583 136.549 231.309 136.825 230.765C137.102 230.22 137.238 229.365 137.238 228.202C137.238 227.039 137.102 226.184 136.825 225.642C136.549 225.101 136.104 224.83 135.491 224.83C134.884 224.83 134.442 225.098 134.166 225.631C133.889 226.167 133.75 227.025 133.75 228.202Z" fill="white"/>
<path d="M139.587 231.68C139.587 231.432 139.644 231.243 139.755 231.118C139.869 230.99 140.029 230.927 140.24 230.927C140.453 230.927 140.622 230.99 140.741 231.118C140.861 231.246 140.921 231.434 140.921 231.68C140.921 231.919 140.861 232.104 140.738 232.233C140.616 232.361 140.451 232.426 140.24 232.426C140.052 232.426 139.895 232.369 139.772 232.252C139.647 232.136 139.587 231.945 139.587 231.68Z" fill="white"/>
<path d="M147.344 226.067C147.344 226.586 147.198 227.008 146.908 227.336C146.617 227.663 146.206 227.886 145.673 227.994V228.04C146.323 228.119 146.805 228.327 147.121 228.661C147.435 228.994 147.592 229.431 147.592 229.969C147.592 230.742 147.324 231.335 146.788 231.751C146.252 232.167 145.491 232.375 144.505 232.375C144.077 232.375 143.684 232.344 143.327 232.278C142.971 232.213 142.623 232.101 142.287 231.936V231.061C142.638 231.235 143.014 231.366 143.41 231.457C143.806 231.548 144.183 231.594 144.539 231.594C145.938 231.594 146.64 231.044 146.64 229.947C146.64 228.963 145.867 228.473 144.322 228.473H143.524V227.68H144.334C144.966 227.68 145.465 227.541 145.836 227.261C146.206 226.982 146.389 226.594 146.389 226.101C146.389 225.705 146.252 225.394 145.981 225.169C145.71 224.944 145.34 224.83 144.875 224.83C144.522 224.83 144.185 224.879 143.872 224.975C143.558 225.072 143.199 225.249 142.797 225.508L142.333 224.887C142.666 224.625 143.048 224.42 143.484 224.269C143.918 224.117 144.376 224.043 144.855 224.043C145.642 224.043 146.255 224.223 146.691 224.585C147.124 224.947 147.344 225.44 147.344 226.067Z" fill="white"/>
<path d="M154.184 228.202C154.184 229.602 153.962 230.648 153.523 231.34C153.084 232.033 152.405 232.378 151.496 232.378C150.624 232.378 149.96 232.024 149.506 231.318C149.053 230.611 148.825 229.573 148.825 228.205C148.825 226.794 149.045 225.745 149.484 225.061C149.923 224.377 150.595 224.035 151.496 224.035C152.374 224.035 153.044 224.391 153.5 225.104C153.956 225.816 154.184 226.851 154.184 228.202ZM149.754 228.202C149.754 229.382 149.894 230.24 150.171 230.776C150.447 231.312 150.889 231.583 151.496 231.583C152.109 231.583 152.553 231.309 152.83 230.765C153.106 230.22 153.243 229.365 153.243 228.202C153.243 227.039 153.106 226.184 152.83 225.642C152.553 225.101 152.109 224.83 151.496 224.83C150.889 224.83 150.447 225.098 150.171 225.631C149.891 226.167 149.754 227.025 149.754 228.202Z" fill="white"/>
<path d="M172.503 274.33V273.486H175.225V274.33H172.503Z" fill="white"/>
<path d="M181.573 276.952H176.245V276.16L178.38 274.014C179.03 273.355 179.46 272.885 179.666 272.605C179.874 272.326 180.028 272.052 180.13 271.784C180.233 271.519 180.284 271.232 180.284 270.927C180.284 270.493 180.153 270.151 179.891 269.898C179.629 269.644 179.264 269.518 178.799 269.518C178.463 269.518 178.143 269.573 177.844 269.684C177.545 269.795 177.209 269.997 176.838 270.288L176.351 269.661C177.097 269.04 177.91 268.729 178.791 268.729C179.552 268.729 180.147 268.923 180.581 269.313C181.014 269.704 181.23 270.228 181.23 270.884C181.23 271.397 181.085 271.907 180.797 272.409C180.509 272.91 179.968 273.546 179.178 274.316L177.405 276.052V276.097H181.573V276.952Z" fill="white"/>
<path d="M183.023 276.365C183.023 276.117 183.08 275.929 183.192 275.804C183.306 275.675 183.465 275.613 183.676 275.613C183.89 275.613 184.058 275.675 184.178 275.804C184.298 275.932 184.357 276.12 184.357 276.365C184.357 276.604 184.298 276.79 184.175 276.918C184.052 277.046 183.887 277.112 183.676 277.112C183.488 277.112 183.331 277.055 183.209 276.938C183.086 276.821 183.023 276.63 183.023 276.365Z" fill="white"/>
<path d="M188.44 268.732C189.178 268.732 189.765 268.903 190.198 269.248C190.632 269.592 190.848 270.066 190.848 270.673C190.848 271.072 190.723 271.437 190.478 271.764C190.23 272.092 189.834 272.391 189.292 272.662C189.95 272.976 190.418 273.306 190.694 273.651C190.971 273.996 191.111 274.398 191.111 274.851C191.111 275.524 190.877 276.06 190.407 276.462C189.936 276.864 189.295 277.063 188.477 277.063C187.613 277.063 186.946 276.875 186.482 276.496C186.017 276.117 185.783 275.581 185.783 274.886C185.783 273.956 186.348 273.235 187.479 272.719C186.969 272.431 186.604 272.121 186.382 271.784C186.159 271.451 186.048 271.075 186.048 270.661C186.048 270.074 186.265 269.607 186.701 269.256C187.131 268.905 187.713 268.732 188.44 268.732ZM186.69 274.906C186.69 275.35 186.844 275.695 187.151 275.943C187.459 276.191 187.892 276.314 188.451 276.314C189.001 276.314 189.429 276.185 189.737 275.926C190.045 275.667 190.196 275.313 190.196 274.863C190.196 274.504 190.05 274.184 189.762 273.908C189.474 273.629 188.973 273.358 188.254 273.096C187.704 273.332 187.305 273.594 187.057 273.879C186.809 274.164 186.69 274.506 186.69 274.906ZM188.428 269.478C187.967 269.478 187.605 269.59 187.342 269.812C187.08 270.034 186.949 270.331 186.949 270.698C186.949 271.038 187.057 271.331 187.277 271.573C187.496 271.816 187.898 272.061 188.485 272.306C189.013 272.084 189.389 271.847 189.608 271.591C189.828 271.337 189.939 271.038 189.939 270.698C189.939 270.325 189.805 270.029 189.537 269.809C189.269 269.59 188.899 269.478 188.428 269.478Z" fill="white"/>
<path d="M197.574 272.306C197.574 275.476 196.346 277.063 193.895 277.063C193.467 277.063 193.125 277.026 192.874 276.952V276.16C193.171 276.257 193.507 276.305 193.883 276.305C194.77 276.305 195.439 276.031 195.893 275.481C196.346 274.931 196.591 274.09 196.634 272.956H196.568C196.366 273.264 196.095 273.497 195.759 273.657C195.422 273.817 195.043 273.899 194.621 273.899C193.903 273.899 193.336 273.686 192.914 273.255C192.492 272.828 192.281 272.226 192.281 271.459C192.281 270.616 192.518 269.952 192.988 269.464C193.458 268.977 194.08 268.732 194.847 268.732C195.397 268.732 195.878 268.874 196.292 269.156C196.705 269.438 197.021 269.852 197.244 270.393C197.463 270.932 197.574 271.571 197.574 272.306ZM194.847 269.518C194.319 269.518 193.909 269.689 193.621 270.029C193.333 270.368 193.188 270.841 193.188 271.448C193.188 271.981 193.322 272.4 193.587 272.705C193.852 273.01 194.257 273.161 194.801 273.161C195.137 273.161 195.448 273.093 195.73 272.956C196.012 272.819 196.235 272.631 196.397 272.397C196.56 272.161 196.642 271.913 196.642 271.653C196.642 271.266 196.565 270.906 196.414 270.579C196.263 270.251 196.052 269.991 195.779 269.803C195.505 269.615 195.2 269.518 194.847 269.518Z" fill="white"/>
<path d="M261.564 259.57V258.727H264.287V259.57H261.564Z" fill="white"/>
<path d="M268.717 262.193H267.819V256.418C267.819 255.939 267.833 255.483 267.864 255.055C267.787 255.132 267.699 255.215 267.605 255.3C267.508 255.386 267.069 255.745 266.285 256.381L265.798 255.748L267.944 254.092H268.719V262.193H268.717Z" fill="white"/>
<path d="M272.085 261.606C272.085 261.358 272.142 261.17 272.253 261.044C272.367 260.916 272.527 260.853 272.738 260.853C272.951 260.853 273.12 260.916 273.239 261.044C273.359 261.172 273.419 261.361 273.419 261.606C273.419 261.845 273.359 262.03 273.237 262.159C273.114 262.287 272.949 262.352 272.738 262.352C272.55 262.352 272.393 262.295 272.27 262.179C272.148 262.062 272.085 261.871 272.085 261.606Z" fill="white"/>
<path d="M280.146 262.193H274.818V261.4L276.953 259.254C277.603 258.596 278.034 258.125 278.239 257.846C278.447 257.567 278.601 257.293 278.703 257.025C278.806 256.76 278.857 256.472 278.857 256.167C278.857 255.734 278.726 255.392 278.464 255.138C278.202 254.884 277.837 254.759 277.372 254.759C277.036 254.759 276.717 254.813 276.417 254.924C276.115 255.035 275.782 255.238 275.411 255.529L274.924 254.901C275.671 254.28 276.483 253.969 277.364 253.969C278.125 253.969 278.721 254.163 279.154 254.554C279.587 254.944 279.804 255.469 279.804 256.124C279.804 256.637 279.658 257.148 279.37 257.649C279.083 258.151 278.541 258.787 277.751 259.556L275.978 261.292V261.338H280.146V262.193Z" fill="white"/>
<path d="M283.843 257.242C284.698 257.242 285.368 257.453 285.858 257.877C286.348 258.302 286.593 258.881 286.593 259.616C286.593 260.454 286.326 261.112 285.793 261.588C285.26 262.065 284.521 262.304 283.583 262.304C282.671 262.304 281.973 262.159 281.494 261.865V260.979C281.754 261.144 282.073 261.275 282.458 261.369C282.842 261.463 283.221 261.512 283.595 261.512C284.245 261.512 284.749 261.358 285.111 261.053C285.47 260.745 285.653 260.303 285.653 259.721C285.653 258.59 284.96 258.026 283.575 258.026C283.224 258.026 282.754 258.08 282.167 258.185L281.691 257.88L281.996 254.089H286.026V254.939H282.783L282.577 257.373C282.999 257.284 283.421 257.242 283.843 257.242Z" fill="white"/>
<path d="M328.955 248.582V247.739H331.677V248.582H328.955Z" fill="white"/>
<path d="M338.068 247.14C338.068 248.539 337.845 249.586 337.406 250.278C336.965 250.968 336.289 251.316 335.38 251.316C334.508 251.316 333.843 250.962 333.39 250.255C332.937 249.549 332.709 248.511 332.709 247.143C332.709 245.732 332.928 244.683 333.367 243.999C333.806 243.315 334.479 242.973 335.38 242.973C336.258 242.973 336.928 243.329 337.384 244.042C337.84 244.754 338.068 245.789 338.068 247.14ZM333.638 247.14C333.638 248.32 333.778 249.178 334.054 249.714C334.331 250.253 334.773 250.52 335.38 250.52C335.993 250.52 336.437 250.247 336.714 249.702C336.99 249.158 337.127 248.303 337.127 247.14C337.127 245.977 336.99 245.122 336.714 244.58C336.437 244.039 335.993 243.768 335.38 243.768C334.773 243.768 334.331 244.036 334.054 244.569C333.778 245.105 333.638 245.963 333.638 247.14Z" fill="white"/>
<path d="M339.476 250.617C339.476 250.369 339.533 250.181 339.644 250.056C339.758 249.928 339.917 249.865 340.128 249.865C340.342 249.865 340.51 249.928 340.63 250.056C340.75 250.184 340.81 250.372 340.81 250.617C340.81 250.857 340.75 251.042 340.627 251.17C340.505 251.299 340.339 251.364 340.128 251.364C339.94 251.364 339.783 251.307 339.661 251.19C339.538 251.073 339.476 250.882 339.476 250.617Z" fill="white"/>
<path d="M347.232 245.008C347.232 245.527 347.087 245.949 346.796 246.276C346.506 246.604 346.095 246.826 345.562 246.935V246.98C346.212 247.06 346.694 247.268 347.01 247.602C347.324 247.935 347.48 248.371 347.48 248.91C347.48 249.683 347.212 250.275 346.677 250.692C346.141 251.108 345.38 251.316 344.393 251.316C343.966 251.316 343.572 251.284 343.216 251.219C342.86 251.153 342.512 251.042 342.176 250.877V250.002C342.526 250.176 342.903 250.307 343.299 250.398C343.695 250.489 344.071 250.535 344.428 250.535C345.827 250.535 346.528 249.985 346.528 248.887C346.528 247.904 345.756 247.414 344.211 247.414H343.413V246.621H344.222C344.855 246.621 345.354 246.482 345.725 246.202C346.095 245.923 346.277 245.535 346.277 245.042C346.277 244.646 346.141 244.335 345.87 244.11C345.599 243.885 345.229 243.771 344.764 243.771C344.411 243.771 344.074 243.819 343.761 243.916C343.447 244.013 343.088 244.19 342.686 244.449L342.221 243.828C342.555 243.566 342.937 243.36 343.373 243.209C343.806 243.058 344.265 242.984 344.744 242.984C345.531 242.984 346.144 243.164 346.58 243.526C347.013 243.885 347.232 244.378 347.232 245.008Z" fill="white"/>
<path d="M354.073 247.14C354.073 248.539 353.85 249.586 353.411 250.278C352.969 250.968 352.294 251.316 351.385 251.316C350.512 251.316 349.848 250.962 349.395 250.255C348.942 249.549 348.714 248.511 348.714 247.143C348.714 245.732 348.933 244.683 349.372 243.999C349.811 243.315 350.484 242.973 351.385 242.973C352.265 242.973 352.932 243.329 353.389 244.042C353.845 244.754 354.073 245.789 354.073 247.14ZM349.643 247.14C349.643 248.32 349.783 249.178 350.059 249.714C350.336 250.253 350.778 250.52 351.385 250.52C351.998 250.52 352.442 250.247 352.719 249.702C352.995 249.158 353.132 248.303 353.132 247.14C353.132 245.977 352.995 245.122 352.719 244.58C352.442 244.039 351.998 243.768 351.385 243.768C350.778 243.768 350.336 244.036 350.059 244.569C349.783 245.102 349.643 245.963 349.643 247.14Z" fill="white"/>
<path d="M529.166 225.451V224.608H531.888V225.451H529.166Z" fill="white"/>
<path d="M538.282 224.012C538.282 225.412 538.059 226.458 537.62 227.15C537.178 227.84 536.503 228.188 535.594 228.188C534.721 228.188 534.057 227.834 533.604 227.127C533.151 226.421 532.923 225.383 532.923 224.015C532.923 222.604 533.142 221.555 533.581 220.871C534.02 220.187 534.693 219.845 535.594 219.845C536.472 219.845 537.141 220.201 537.598 220.914C538.054 221.626 538.282 222.658 538.282 224.012ZM533.852 224.012C533.852 225.192 533.992 226.05 534.268 226.586C534.545 227.122 534.987 227.393 535.594 227.393C536.207 227.393 536.651 227.119 536.928 226.574C537.204 226.03 537.341 225.175 537.341 224.012C537.341 222.849 537.204 221.994 536.928 221.452C536.651 220.911 536.207 220.64 535.594 220.64C534.987 220.64 534.545 220.908 534.268 221.441C533.989 221.977 533.852 222.832 533.852 224.012Z" fill="white"/>
<path d="M539.69 227.487C539.69 227.239 539.747 227.051 539.859 226.925C539.973 226.797 540.132 226.734 540.343 226.734C540.557 226.734 540.725 226.797 540.845 226.925C540.965 227.053 541.024 227.242 541.024 227.487C541.024 227.726 540.965 227.911 540.842 228.04C540.719 228.168 540.554 228.233 540.343 228.233C540.155 228.233 539.998 228.176 539.876 228.06C539.75 227.946 539.69 227.752 539.69 227.487Z" fill="white"/>
<path d="M544.954 223.126C545.806 223.126 546.479 223.336 546.969 223.761C547.46 224.186 547.705 224.764 547.705 225.5C547.705 226.338 547.437 226.996 546.904 227.472C546.371 227.948 545.633 228.188 544.695 228.188C543.783 228.188 543.084 228.042 542.605 227.749V226.862C542.865 227.028 543.184 227.159 543.569 227.253C543.954 227.347 544.333 227.395 544.706 227.395C545.356 227.395 545.861 227.241 546.223 226.937C546.582 226.629 546.764 226.187 546.764 225.605C546.764 224.474 546.072 223.909 544.686 223.909C544.336 223.909 543.865 223.964 543.278 224.069L542.802 223.764L543.107 219.973H547.138V220.822H543.894L543.689 223.257C544.11 223.165 544.532 223.126 544.954 223.126Z" fill="white"/>
<path d="M554.285 224.012C554.285 225.412 554.062 226.458 553.623 227.15C553.181 227.84 552.506 228.188 551.597 228.188C550.724 228.188 550.06 227.834 549.607 227.127C549.154 226.421 548.926 225.383 548.926 224.015C548.926 222.604 549.145 221.555 549.584 220.871C550.023 220.187 550.696 219.845 551.597 219.845C552.474 219.845 553.144 220.201 553.6 220.914C554.056 221.626 554.285 222.658 554.285 224.012ZM549.855 224.012C549.855 225.192 549.995 226.05 550.271 226.586C550.548 227.122 550.989 227.393 551.597 227.393C552.209 227.393 552.654 227.119 552.931 226.574C553.207 226.03 553.344 225.175 553.344 224.012C553.344 222.849 553.207 221.994 552.931 221.452C552.654 220.911 552.209 220.64 551.597 220.64C550.989 220.64 550.548 220.908 550.271 221.441C549.995 221.977 549.855 222.832 549.855 224.012Z" fill="white"/>
</g>
<path opacity="0.55" d="M264.669 189.616C264.997 189.616 265.262 189.882 265.262 190.209V255.851C265.262 256.179 264.997 256.444 264.669 256.444C264.341 256.444 264.076 256.179 264.076 255.851V190.209C264.076 189.879 264.341 189.616 264.669 189.616Z" fill="url(#paint3_linear_48_258)"/>
<path opacity="0.55" d="M323.282 188.516C323.61 188.516 323.875 188.781 323.875 189.109V254.751C323.875 255.078 323.61 255.343 323.282 255.343C322.955 255.343 322.689 255.078 322.689 254.751V189.109C322.689 188.781 322.955 188.516 323.282 188.516Z" fill="url(#paint4_linear_48_258)"/>
<path opacity="0.55" d="M103.604 218.28C103.931 218.28 104.197 218.545 104.197 218.873V284.514C104.197 284.842 103.931 285.107 103.604 285.107C103.276 285.107 103.011 284.842 103.011 284.514V218.873C103.011 218.545 103.276 218.28 103.604 218.28Z" fill="url(#paint5_linear_48_258)"/>
<path opacity="0.55" d="M427.71 147.094C428.038 147.094 428.303 147.359 428.303 147.687V213.329C428.303 213.657 428.038 213.922 427.71 213.922C427.382 213.922 427.117 213.657 427.117 213.329V147.687C427.117 147.359 427.382 147.094 427.71 147.094Z" fill="url(#paint6_linear_48_258)"/>
<path opacity="0.55" d="M486.447 151.452C486.775 151.452 487.04 151.717 487.04 152.045V217.687C487.04 218.015 486.775 218.28 486.447 218.28C486.12 218.28 485.854 218.015 485.854 217.687V152.045C485.854 151.717 486.12 151.452 486.447 151.452Z" fill="url(#paint7_linear_48_258)"/>
<defs>
<linearGradient id="paint0_linear_48_258" x1="286.607" y1="34.4897" x2="286.607" y2="330.36" gradientUnits="userSpaceOnUse">
<stop stop-color="#AD475C"/>
<stop offset="1" stop-color="#AD475C" stop-opacity="0"/>
</linearGradient>
<linearGradient id="paint1_linear_48_258" x1="287.178" y1="104.324" x2="287.178" y2="330.36" gradientUnits="userSpaceOnUse">
<stop stop-color="#AD475C"/>
<stop offset="1" stop-color="#AD475C" stop-opacity="0"/>
</linearGradient>
<linearGradient id="paint2_linear_48_258" x1="286.607" y1="104.324" x2="286.607" y2="330.36" gradientUnits="userSpaceOnUse">
<stop stop-color="#AD475C"/>
<stop offset="1" stop-color="#AD475C" stop-opacity="0"/>
</linearGradient>
<linearGradient id="paint3_linear_48_258" x1="264.669" y1="189.42" x2="264.669" y2="254.544" gradientUnits="userSpaceOnUse">
<stop stop-color="white"/>
<stop offset="0.9977" stop-color="#231F20"/>
</linearGradient>
<linearGradient id="paint4_linear_48_258" x1="323.281" y1="188.32" x2="323.281" y2="253.444" gradientUnits="userSpaceOnUse">
<stop stop-color="white"/>
<stop offset="0.9977" stop-color="#231F20"/>
</linearGradient>
<linearGradient id="paint5_linear_48_258" x1="103.603" y1="218.085" x2="103.603" y2="283.209" gradientUnits="userSpaceOnUse">
<stop stop-color="white"/>
<stop offset="0.9977" stop-color="#231F20"/>
</linearGradient>
<linearGradient id="paint6_linear_48_258" x1="427.709" y1="146.9" x2="427.709" y2="212.024" gradientUnits="userSpaceOnUse">
<stop stop-color="white"/>
<stop offset="0.9977" stop-color="#231F20"/>
</linearGradient>
<linearGradient id="paint7_linear_48_258" x1="486.447" y1="151.256" x2="486.447" y2="216.38" gradientUnits="userSpaceOnUse">
<stop stop-color="white"/>
<stop offset="0.9977" stop-color="#231F20"/>
</linearGradient>
</defs>
</svg>
