<svg width="444" height="267" viewBox="0 0 444 267" fill="none" xmlns="http://www.w3.org/2000/svg">
<path fill-rule="evenodd" clip-rule="evenodd" d="M373.311 63.8081L355.396 44.9571L443.821 33.9999L429.085 122.496L408.376 100.705L255 243.366L174.506 167.129C159.436 181.882 136.164 204.654 112.751 227.507C96.7501 243.125 83.7974 255.742 73.2983 265.956L0.179548 265.87C20.459 246.675 102.108 166.9 157.116 112.988L173.935 96.505L255.307 173.571L373.311 63.8081Z" fill="#AD475C" fill-opacity="0.2"/>
<path d="M287.845 40.1219L277.136 60.4428L271.642 58.4449L273.425 63.8662L262.687 96.214C262.687 96.2164 256.747 55.1141 287.845 40.1219Z" fill="#883647"/>
<path d="M269.978 58.0891C269.978 58.0891 258.133 101.752 256.993 143.417C256.993 143.417 266.817 146.841 282.248 144.131C297.762 141.405 269.978 58.0891 269.978 58.0891Z" fill="#883647"/>
<path d="M213.267 118.633C216.444 118.572 220.92 118.967 222.399 117.349C224.075 115.514 226.051 115.784 226.051 115.784L225.652 113.689L225.172 111.187C225.172 111.187 224.992 110.958 224.339 110.967C224.339 110.967 222.036 111.067 220.937 110.673C218.259 109.715 207.612 116.096 207.97 117.868C208.106 118.53 211.915 118.66 213.267 118.633Z" fill="#E7CDBC"/>
<path d="M271.315 57.2314C271.315 57.2314 253.324 94.3914 247.756 98.3801C242.189 102.369 222.34 110.994 222.34 110.994C222.34 110.994 221.821 112.229 222.301 114.04C222.803 115.923 223.793 116.457 223.793 116.457C223.793 116.457 251.542 113.979 257.994 109.963C264.446 105.948 278.671 89.9423 278.671 89.9423L271.315 57.2314Z" fill="#883647"/>
<path d="M323.975 265.587H334.622C335.963 264.858 337.156 263.191 337.534 260.709C338.053 257.278 341.898 255.407 342.731 252.602C343.562 249.798 339.301 245.848 339.301 245.848L338.589 244.929L337.848 243.977L330.782 245.641C330.782 245.641 330.607 247.325 330.502 249.469C330.424 251.016 330.385 252.802 330.471 254.371C330.678 258.111 329.425 262.141 326.099 262.87C323.641 263.406 323.751 264.863 323.975 265.587Z" fill="#883647"/>
<path d="M262.179 265.587H286.53C287.702 264.156 287.27 258.884 287.093 257.161C287.056 256.815 287.032 256.613 287.032 256.613C287.032 256.613 278.716 249.961 277.573 255.053C277.539 255.214 277.495 255.37 277.449 255.524C276.009 260.287 269.554 262.453 265.829 263.055C263.404 263.45 262.51 264.709 262.179 265.587Z" fill="#883647"/>
<path d="M266.818 129.663C266.818 129.663 268.081 145.415 269.564 164.352C271.582 190.075 274.006 221.672 274.247 227.659C274.662 238.053 276.326 254.68 276.326 254.68C276.326 254.68 280.273 258.63 288.172 256.966C288.172 256.966 295.212 233.231 297.224 208.118C297.256 207.706 297.288 207.292 297.317 206.878C299.188 181.313 302.097 127.48 302.097 127.48L266.818 129.663Z" fill="#222222"/>
<path d="M266.818 129.663C266.818 129.663 268.081 145.415 269.564 164.352L297.224 208.118C297.256 207.706 297.288 207.292 297.317 206.878C299.188 181.313 302.097 127.48 302.097 127.48L266.818 129.663Z" fill="black"/>
<path d="M272.585 131.532C272.585 131.532 295.345 188.584 310.308 215.396C325.273 242.208 329.949 249.69 329.949 249.69C329.949 249.69 338.523 246.262 339.303 243.923C339.303 243.923 333.579 192.161 323.558 179.544C317.895 172.415 311.243 151.017 310.932 143.534C310.62 136.052 308.904 121.242 308.904 121.242L272.585 131.532Z" fill="#222222"/>
<path d="M278.25 48.3624C287.143 51.1693 302.533 43.594 302.533 43.594C302.533 43.594 294.334 37.4393 294.763 24.6449L287.887 30.1856L283.216 33.9501C283.216 33.9501 283.235 36.1698 283.744 40.0586C283.837 40.7676 283.947 41.5327 284.076 42.3514C284.178 43.0044 283.891 43.6623 283.328 44.0107C280.087 46.0135 278.25 48.3624 278.25 48.3624Z" fill="#FFDBC3"/>
<path d="M265.836 130.974C266.104 131.196 266.416 131.33 266.771 131.33C270.112 131.283 279.851 133.14 288.091 132.292C295.038 131.624 301.188 129.568 307.791 126.608C308.668 126.215 310.685 125.138 310.642 124.156C310.612 123.082 310.505 121.527 310.371 119.566C309.903 112.751 309.09 101.029 309.884 87.5033C310.028 84.9863 310.101 82.4864 310.11 80.0279C310.179 61.6977 306.543 45.575 299.241 40.1195C299.241 40.1195 294.149 42.9776 290.623 44.1033C287.17 45.207 285.389 44.9853 283.598 43.7963C283.598 43.7963 280.109 45.5287 278.62 47.1539C275.17 50.9159 272.475 55.9108 270.694 63.0792C269.179 69.1803 267.761 78.0762 267.271 89.4769C267.047 94.6448 265.614 130.796 265.836 130.974Z" fill="white"/>
<path d="M309.029 70.4084L299.239 40.1219C299.239 40.1219 275.736 48.9862 274.646 82.1745C274.218 89.7376 272.405 120.731 275.687 146.414C275.687 146.414 293.998 153.549 316.448 139.47L309.029 70.4084Z" fill="#AD475C"/>
<path d="M283.213 33.9501C283.213 33.9501 283.232 36.1698 283.742 40.0586C288.917 39.1717 294.789 30.8045 294.789 30.8045C292.153 30.0443 289.845 29.9079 287.884 30.1856L283.213 33.9501Z" fill="#E6CCBB"/>
<path d="M279.361 33.7114C279.361 33.7114 295.379 36.3721 296.885 26.3725C298.388 16.3704 301.468 9.9793 291.305 7.85705C281.142 5.73481 278.577 9.25076 277.261 12.467C275.947 15.6833 275.234 32.7611 279.361 33.7114Z" fill="#FFDBC3"/>
<path d="M349.65 163.093L316.944 167.754C312.688 168.36 308.709 165.373 308.102 161.117L306.082 146.943C305.475 142.686 308.463 138.708 312.719 138.101L345.425 133.44C349.682 132.833 353.661 135.82 354.268 140.077L356.287 154.25C356.894 158.507 353.907 162.486 349.65 163.093Z" fill="#883647"/>
<path d="M310.392 146.319L312.436 160.656C312.834 163.431 314.656 165.67 317.056 166.73C317.85 167.084 318.711 167.305 319.605 167.374C319.607 167.374 319.607 167.374 319.61 167.374H319.612C320.168 167.417 320.738 167.403 321.315 167.32L353.963 162.666C358.234 162.057 361.231 158.064 360.624 153.792L358.582 139.453C357.971 135.182 353.98 132.185 349.706 132.792L338.464 134.395L338.028 131.337C337.828 129.924 336.512 128.939 335.099 129.139L333.866 129.315L327.029 130.289L325.331 130.533C324.648 130.628 324.042 130.989 323.625 131.542C323.208 132.097 323.033 132.779 323.133 133.459L323.569 136.517L317.056 137.443C316.798 137.479 316.547 137.531 316.301 137.589C316.298 137.592 316.296 137.592 316.296 137.592H316.293C313.779 138.208 311.793 140.023 310.875 142.323V142.326C310.38 143.554 310.195 144.921 310.392 146.319ZM336.853 134.621L325.17 136.288L324.734 133.23C324.658 132.704 325.026 132.214 325.555 132.139L328.488 131.719L333.871 130.952L335.323 130.745C335.423 130.733 335.52 130.733 335.613 130.75C336.02 130.816 336.354 131.14 336.417 131.566L336.853 134.621Z" fill="#AD475C"/>
<path d="M324.781 120.889C324.781 120.889 326.499 123.177 326.567 124.091C327.028 130.287 324.199 131.144 331.528 134.585C331.528 134.585 334.657 135.779 334.71 133.35C334.764 130.92 332.539 130.881 332.946 127.48C333.416 123.557 333.368 123.52 330.792 121.471L329.087 118.652L324.781 120.889Z" fill="#FFDBC3"/>
<path d="M329.147 122.643C326.387 123.182 323.392 122.963 323.392 122.963C323.392 122.963 315.193 97.6369 314.138 95.3246C313.083 93.0099 289.787 65.6279 289.787 65.6279L299.236 40.1219C299.236 40.1219 304.779 43.365 310.637 53.4743C317.876 65.9617 325.831 86.0754 327.247 89.3429C331.474 99.1159 332.941 121.028 332.941 121.028C332.941 121.028 331.316 122.219 329.147 122.643Z" fill="#AD475C"/>
<path d="M296.897 25.41C296.897 25.41 295.252 25.1346 295.518 22.8711C295.783 20.6075 295.779 17.6471 293.939 18.2002C292.097 18.7508 292.007 20.225 291.249 19.3649C290.494 18.5048 290.479 14.8792 285.002 14.6258C279.524 14.3724 277.297 16.2802 274.751 15.1594C272.205 14.0385 272.068 10.1839 272.068 10.1839C272.068 10.1839 272.792 11.5606 273.886 11.9992C273.886 11.9992 269.637 6.18796 274.556 2.20175C279.475 -1.78447 284.492 0.825089 287.341 0.998084C293.615 1.37819 297.667 1.75342 299.716 5.87608C301.768 9.9963 300.922 21.4408 296.897 25.41Z" fill="#AD475C"/>
<path d="M327.491 123.613C327.491 123.613 325.836 125.338 325.732 126.054C325.395 128.357 324.628 129.351 325.013 129.602C325.814 130.124 326.874 128.418 327.381 126.888C327.888 125.358 327.491 123.613 327.491 123.613Z" fill="#FFDBC3"/>
<path d="M299.238 40.1219L288.53 60.4428L283.035 58.4449L284.819 63.8662L274.081 96.214C274.081 96.2164 268.141 55.1141 299.238 40.1219Z" fill="#883647"/>
<path d="M278.25 28.0365C278.25 28.0365 278.874 29.686 280.433 29.7299C281.993 29.7737 283.196 28.2582 283.196 28.2582C283.196 28.2582 279.809 27.476 278.25 28.0365Z" fill="white"/>
<path d="M194.666 181.355L227.192 173.818C231.424 172.837 234.085 168.573 233.106 164.338L229.841 150.242C228.861 146.01 224.595 143.349 220.36 144.329L187.834 151.865C183.602 152.847 180.941 157.111 181.921 161.346L185.186 175.441C186.168 179.676 190.434 182.337 194.666 181.355Z" fill="#222222"/>
<path d="M223.642 147.64C221.937 145.805 219.405 144.819 216.808 145.155H216.805C216.803 145.155 216.803 145.157 216.801 145.155C216.547 145.189 216.291 145.233 216.036 145.291L209.559 146.795L208.855 143.754C208.699 143.074 208.285 142.496 207.69 142.126C207.096 141.758 206.394 141.639 205.717 141.797L204.028 142.187L197.228 143.764L196.002 144.049C194.599 144.375 193.717 145.783 194.043 147.187L194.747 150.228L183.568 152.818C179.319 153.802 176.649 158.083 177.633 162.333L180.937 176.591C181.921 180.841 186.202 183.511 190.452 182.527L222.919 175.005C223.491 174.873 224.035 174.681 224.544 174.435H224.546C224.549 174.435 224.549 174.435 224.549 174.432C225.368 174.043 226.094 173.519 226.715 172.897C228.591 171.024 229.493 168.248 228.854 165.488L225.553 151.232C225.226 149.84 224.554 148.62 223.642 147.64ZM195.639 146.816C195.542 146.39 195.739 145.964 196.097 145.754C196.18 145.705 196.27 145.669 196.37 145.645L197.815 145.308L203.168 144.07L206.085 143.396C206.608 143.274 207.135 143.603 207.257 144.127L207.961 147.167L196.343 149.857L195.639 146.816Z" fill="black"/>
<path d="M202.313 129.295C202.313 129.295 201.331 132.779 201.667 133.888C203.953 141.41 207.903 146.332 197.282 145.062C197.282 145.062 197.72 144.626 195.688 140.801C193.344 136.386 193.383 136.322 195.486 132.728L196.212 128.625L202.313 129.295Z" fill="#FFDBC3"/>
<path d="M215.675 120.338C212.468 120.143 208.56 119.305 207.137 117.609C205.522 115.687 203.911 115.17 203.911 115.17L204.403 113.07L204.993 110.563C204.993 110.563 205.185 110.341 205.843 110.375C205.843 110.375 208.358 110.943 209.291 110.222C210.224 109.501 211.932 109.939 212.982 110.638C214.32 111.525 216.126 111.384 216.079 111.818C216.079 111.818 213.428 113.121 213.677 113.341C216.104 115.494 222.497 116.352 222.081 118.036C221.915 118.701 217.042 120.421 215.675 120.338Z" fill="#FFDBC3"/>
<path d="M170.991 38.4237L170.981 40.1659C170.981 40.1659 171.456 45.6164 164.744 46.4132C158.031 47.2124 152.527 47.1052 152.71 42.8997C153.314 39.642 154.398 34.5886 154.442 31.8937C154.459 30.8923 154.391 29.83 154.203 28.6288L167.209 28.368L171.04 28.9942L170.991 38.4237Z" fill="#FFDBC3"/>
<path d="M171.043 28.9942L170.994 38.4213C169.612 39.0645 168.053 39.4568 166.306 39.4568C160.329 39.4568 156.465 35.0734 154.445 31.8913C154.462 30.8899 154.394 29.8275 154.206 28.6263L167.212 28.3656L171.043 28.9942Z" fill="#E7CDBC"/>
<path d="M153.207 26.5357C154.715 34.6568 165.195 34.3912 169.724 33.8795C170.999 33.7382 171.8 33.5749 171.8 33.5749C173.238 33.19 174.039 30.9288 174.412 27.9635C175.15 22.0963 174.217 13.4831 173.226 11.2804C171.734 7.9667 168.923 4.38008 158.37 6.96771C147.817 9.55533 151.272 16.1292 153.207 26.5357Z" fill="#FFDBC3"/>
<path d="M144.633 266.99H159.484C159.372 266.21 158.994 263.842 158.299 261.659C158.058 260.899 157.778 260.16 157.459 259.519C156.014 256.637 146.84 258.469 146.84 258.469C146.84 258.469 145.988 259.2 145.322 261.988C145.028 263.218 144.769 264.848 144.633 266.99Z" fill="#883647"/>
<path d="M189.506 262.305C189.548 264.324 189.801 266.237 190.534 266.99H219.907C219.534 265.928 218.477 264.329 215.46 263.84C212.035 263.284 206.694 261.635 203.575 258.338C202.464 257.166 201.635 255.784 201.272 254.171C199.891 248.019 189.847 256.057 189.847 256.057C189.847 256.057 189.44 259.295 189.506 262.305Z" fill="#883647"/>
<path d="M169.97 195.796C170.38 198.05 170.638 199.897 170.709 201.222C171.642 219.436 186.039 261.081 188.615 262.051C192.599 263.554 198.875 260.358 202.157 259.312C203.517 258.879 204.435 257.504 204.133 256.113C197.004 223.334 194.382 176.136 193.43 148.191C192.947 134.115 190.532 124.393 190.532 124.393C190.532 124.393 155.417 115.024 155.207 126.876C155.022 137.365 166.839 178.497 169.97 195.796Z" fill="#AD475C"/>
<path d="M169.97 195.796L193.43 148.191C192.947 134.115 190.532 124.393 190.532 124.393C190.532 124.393 155.417 115.024 155.207 126.876C155.022 137.365 166.839 178.497 169.97 195.796Z" fill="#883647"/>
<path d="M177.784 126.917L159.22 261.461C159.22 261.461 151.067 263.428 144.727 261.854C144.727 261.854 139.291 190.297 139.744 172.997C140.198 155.698 135.844 126.708 140.739 123.511C145.631 120.314 177.784 126.917 177.784 126.917Z" fill="#AD475C"/>
<path d="M173.632 12.5498C170.733 13.4635 164.6 12.5304 162.036 14.6039C159.473 16.6798 161.915 20.0983 158.986 21.3166L158.974 21.3214C158.382 21.5675 157.692 21.4019 157.29 20.8999C156.479 19.8863 155.355 18.8776 154.33 19.2942C153.487 19.6402 153.445 20.7269 153.816 21.7844C154.127 22.6737 154.04 23.6703 153.501 24.4451C153.267 24.7789 153.116 25.1468 153.182 25.5172C153.426 26.8573 154.091 28.6019 154.335 29.4937L154.403 30.4293C154.403 30.4293 149.496 25.1176 147.427 20.6465C146.009 17.5789 146.036 6.11244 152.975 2.76218C152.946 2.74025 152.924 2.71588 152.909 2.68664C152.758 2.41862 152.341 2.47954 152.341 2.47954C152.938 2.21152 153.864 2.38207 153.864 2.38207C153.845 2.36745 153.881 2.3236 153.964 2.26024C154.086 1.44887 154.902 0.868964 154.902 0.868964C154.624 1.271 154.508 1.67059 154.459 1.96542C156.281 1.00541 161.89 -1.12414 166.337 0.812928C169.344 2.12136 172.102 2.81822 173.976 3.17883C175.518 3.47609 176.612 4.85275 176.556 6.42433C176.478 8.62454 175.71 11.7921 173.632 12.5498Z" fill="#883647"/>
<path d="M151.126 45.2363L155.4 136.941C155.4 136.941 191.071 137.523 190.052 129.451C189.034 121.379 177.195 48.0432 177.195 48.0432" fill="#E9F3FE"/>
<path d="M162.887 102.681C162.887 102.681 161.077 127.173 157.598 142.552C157.598 142.552 136.782 143.656 131.841 135.62C131.841 135.62 135.752 102.532 135.752 95.8217C135.752 93.4631 135.569 90.2566 135.281 86.6699C134.848 81.2389 134.177 74.9501 133.539 69.4703C132.655 61.839 131.841 55.7744 131.841 55.7744L149.004 41.8275L162.887 102.681Z" fill="#AD475C"/>
<path d="M204.192 131.661C204.192 131.661 200.308 134.093 194.192 133.276C191.965 138.737 186.714 140.591 186.714 140.096C186.714 140.035 185.535 129.785 184.144 117.707C184.007 116.498 183.866 115.275 183.725 114.042C183.713 113.937 183.698 113.83 183.688 113.726C183.454 111.703 183.22 109.656 182.984 107.619C181.308 93.0708 179.699 79.1239 179.699 79.1239C176.05 56.7782 172.96 42.0103 172.96 42.0103C180.747 42.8216 186.003 45.5944 188.098 49.2273C194.314 59.9994 198.814 86.9453 201.451 107.115C201.456 107.166 201.463 107.217 201.47 107.269C201.923 110.75 202.323 114.03 202.664 116.983C202.686 117.168 202.708 117.351 202.727 117.531C203.695 125.984 204.192 131.661 204.192 131.661Z" fill="#AD475C"/>
<path d="M168.077 27.871C168.077 27.871 168.416 28.9187 171.059 28.5362C171.059 28.5362 173.279 28.2145 173.116 27.0474C173.116 27.0474 170.884 26.3895 168.077 27.871Z" fill="white"/>
<path d="M150.118 41.718C150.074 40.8433 154.218 39.6348 154.218 39.6348C154.218 39.6348 158.962 46.2135 166.779 46.328C166.779 46.328 164.552 50.6626 161.925 51.7859C161.928 51.7834 150.373 46.9152 150.118 41.718Z" fill="#E9F3FE"/>
<path d="M166.779 46.1721C166.779 46.1721 170.921 43.716 170.934 41.0553C170.934 41.0553 173.609 40.7215 174.776 42.0177C174.776 42.0177 175.758 46.579 174.454 49.2275C174.459 49.2275 168.495 48.3187 166.779 46.1721Z" fill="#E9F3FE"/>
<path d="M163.97 45.7772L169.586 44.4323C169.586 44.4323 170.32 44.4956 170.3 45.4118C170.281 46.3255 168.719 48.9984 168.027 49.2128C167.332 49.4223 162.642 47.6266 163.97 45.7772Z" fill="#BA4C43"/>
<path d="M150.771 41.2648C150.727 40.3901 153.534 38.587 153.534 38.587C153.534 38.587 158.965 44.9343 166.782 45.0488C166.782 45.0488 164.555 49.3834 161.928 50.5067C161.928 50.5067 151.029 46.462 150.771 41.2648Z" fill="#E9F3FE"/>
<path d="M166.779 45.0463C166.779 45.0463 170.968 42.8266 170.982 40.1635C170.982 40.1635 173.512 41.277 174.679 42.5732C174.679 42.5732 175.76 45.4532 174.457 48.1018C174.459 48.1042 168.495 47.1954 166.779 45.0463Z" fill="#E9F3FE"/>
<path d="M177.046 121.944C176.829 124.573 175.823 127.032 174.222 128.84L171.705 131.681C171.074 132.395 170.092 132.309 169.575 131.496L166.539 126.732C165.726 125.455 165.353 123.83 165.494 122.198C165.818 118.562 166.422 111.557 166.917 104.801C167.319 99.3233 167.653 94.0042 167.704 90.7709C167.872 80.4448 166.518 47.5342 166.518 47.5342L168.535 47.6389C168.535 47.6389 173.428 60.3627 175.886 77.7207C176.493 81.9944 176.948 86.5459 177.151 91.2631C177.151 91.2631 178.021 110.059 177.046 121.944Z" fill="#C65447"/>
<path d="M177.046 121.944C176.829 124.573 175.823 127.032 174.222 128.84L171.705 131.681C171.074 132.395 170.092 132.309 169.575 131.496L166.539 126.732C165.726 125.455 165.353 123.83 165.494 122.198C165.818 118.562 166.422 111.557 166.917 104.801C172.572 97.0499 174.936 86.3997 175.886 77.7231C176.493 81.9969 176.948 86.5484 177.151 91.2655C177.151 91.2631 178.021 110.059 177.046 121.944Z" fill="#BA4C43"/>
<path d="M153.533 38.5869C153.533 38.5869 164.651 85.152 162.882 102.693C162.882 102.693 158.794 83.9483 148.957 68.5956C148.957 68.5956 152.546 65.4378 152.351 64.2756C152.351 64.2756 149.686 63.4861 147.101 64.0173C147.101 64.0173 147.386 43.9449 148.999 41.8251C150.612 39.7029 153.533 38.5869 153.533 38.5869Z" fill="#883647"/>
<path d="M170.982 40.1658C169.315 40.2998 182 85.6685 182.94 100.21C182.94 100.21 181.827 74.2605 181.937 66.7803C181.937 66.7803 177.319 64.3364 177.319 63.4788C177.319 62.6211 182.246 60.3015 182.246 60.3015C182.246 60.3015 179.127 44.3201 177.424 42.5609C175.721 40.7993 170.982 40.1658 170.982 40.1658Z" fill="#883647"/>
<path d="M194.199 135.121C194.199 135.121 193.429 136.164 193.919 138.781C194.409 141.398 194.138 142.842 194.815 142.392C195.493 141.941 196.891 138.798 196.891 138.798L194.199 135.121Z" fill="#FFDBC3"/>
<path d="M161.528 109.856C148.585 107.924 139.93 95.8291 135.281 86.67C134.848 81.2389 134.177 74.9502 133.539 69.4704L136.568 60.8303L161.528 109.856Z" fill="#883647"/>
<path d="M202.725 117.531C200.147 118.128 192.329 119.588 184.144 117.704C184.008 116.496 183.866 115.273 183.725 114.04C183.713 113.935 183.698 113.828 183.688 113.723C183.956 112.673 184.227 111.623 184.495 110.573C189.127 112.232 199.477 115.862 202.662 116.983C202.684 117.171 202.706 117.354 202.725 117.531Z" fill="#883647"/>
<path d="M148.999 41.8226C149.004 41.8251 137.625 43.2602 132.435 50.5065C127.243 57.7529 138.392 97.2178 161.528 109.856C172.658 115.935 204.772 117.305 204.772 117.305C204.772 117.305 206.538 117.483 207.237 113.928C207.481 112.69 207.237 110.575 207.237 110.575C207.237 110.575 170.682 96.8694 167.468 94.2306C164.254 91.5894 148.999 41.8226 148.999 41.8226Z" fill="#AD475C"/>
<path d="M280.001 110.174C280.001 110.174 276.175 109.214 275.081 108.982C273.802 108.712 272.63 107.749 272.258 108.202C271.563 109.045 274.492 110.527 275.647 113.132C276.214 114.411 277.355 115.105 279.643 114.167C280.793 113.694 281.709 111.304 280.001 110.174Z" fill="#E2915A"/>
</svg>
