<svg width="56" height="55" viewBox="0 0 56 55" fill="none" xmlns="http://www.w3.org/2000/svg">
<g clip-path="url(#clip0_48_510)">
<path d="M28.6271 10.5817C27.4098 10.5817 26.3697 11.3599 25.9767 12.4424L10.9565 14.3146C9.66597 14.4764 8.74912 15.6552 8.91091 16.9458C9.0573 18.1361 10.0782 19.0106 11.2454 19.0106C11.3417 19.0106 11.4419 19.0029 11.5382 18.9913L12.1507 18.9143L7.6512 32.2356C7.63965 32.2703 7.63194 32.3011 7.62424 32.3358H4.5L4.56549 33.191C4.77737 35.9763 7.12729 38.1567 9.92022 38.1567H18.064C20.8531 38.1567 23.2069 35.9763 23.4188 33.191L23.4843 32.3358H20.5758C20.5681 32.3011 20.5604 32.2703 20.5488 32.2356L15.8913 18.4482L25.7995 17.2154V40.2331H20.6335C19.0772 40.2331 17.8098 41.5005 17.8098 43.0568C17.8098 44.6132 19.0772 45.8806 20.6335 45.8806H36.6169C38.1732 45.8806 39.4406 44.6132 39.4406 43.0568C39.4406 41.5005 38.1732 40.2331 36.6169 40.2331H31.4509V16.5143L41.0586 15.3162L36.6669 28.3255C36.6554 28.3602 36.6477 28.391 36.64 28.4257H33.5196L33.5851 29.2809C33.7969 32.0661 36.1469 34.2466 38.9398 34.2466H47.0836C49.8727 34.2466 52.2265 32.0661 52.4345 29.2809L52.5 28.4257H49.5915C49.5838 28.391 49.5761 28.3602 49.5645 28.3255L45.0072 14.827L46.0474 14.696C47.3379 14.5342 48.2547 13.3554 48.0929 12.0649C47.9311 10.7743 46.7523 9.85362 45.4618 10.0193L30.9616 11.826C30.4531 11.0748 29.5979 10.5817 28.6271 10.5817ZM21.6621 33.9268C21.169 35.4755 19.6974 36.5695 18.0602 36.5695H9.91637C8.27913 36.5695 6.8114 35.4755 6.31445 33.9268H21.6621ZM19.0965 32.3358H9.09197L13.6878 18.7217L14.466 18.6254L19.0965 32.3358ZM36.6169 41.643C37.395 41.643 38.0307 42.2787 38.0307 43.0568C38.0307 43.835 37.3989 44.4706 36.6169 44.4706H20.6335C19.8554 44.4706 19.2197 43.8389 19.2197 43.0568C19.2197 42.2787 19.8515 41.643 20.6335 41.643H25.892H26.6355H27.4059H29.8368H30.6072H31.3507H36.6169ZM50.6778 30.0167C50.1848 31.5653 48.7132 32.6556 47.0759 32.6556H38.9321C37.2949 32.6556 35.8271 31.5615 35.3302 30.0167H50.6778ZM48.1122 28.4218H38.1116L42.6034 15.1198L43.5857 14.9965L48.1122 28.4218ZM45.6352 11.4177C45.6737 11.4138 45.7122 11.41 45.7507 11.41C46.2207 11.41 46.6291 11.7605 46.6868 12.2382C46.7177 12.4848 46.6483 12.7352 46.4942 12.9355C46.3363 13.1358 46.1167 13.2629 45.8663 13.2938L31.447 15.0889L30.7421 15.1775L30.0371 15.2661V15.9788V16.6915V40.2369H27.2133V17.0459V16.3332V15.6206L26.5083 15.7092L25.8034 15.7978L11.361 17.5968C11.1144 17.6276 10.864 17.5583 10.6637 17.4042C10.4634 17.2501 10.3363 17.0267 10.3055 16.7763C10.2746 16.5259 10.344 16.2793 10.4981 16.079C10.6522 15.8787 10.8756 15.7515 11.126 15.7207L25.7995 13.8947L26.5045 13.8061L27.2095 13.7175V13.4132C27.2095 13.2668 27.2364 13.132 27.2788 12.9971C27.3828 12.6658 27.5986 12.3885 27.8913 12.2112C28.1071 12.0803 28.3536 11.9994 28.6233 11.9994C28.7658 11.9994 28.9006 12.0263 29.0316 12.0687C29.3668 12.1689 29.6441 12.3885 29.8214 12.6812C29.9446 12.8816 30.0178 13.1165 30.0255 13.3669L30.7228 13.2783L31.4316 13.1897L45.6352 11.4177Z" fill="#AD475C"/>
</g>
<defs>
<clipPath id="clip0_48_510">
<rect width="55" height="55" fill="white" transform="translate(0.5)"/>
</clipPath>
</defs>
</svg>
