<svg width="56" height="55" viewBox="0 0 56 55" fill="none" xmlns="http://www.w3.org/2000/svg">
<g clip-path="url(#clip0_48_521)">
<path d="M23.3867 50.7497C33.8027 50.7497 42.2734 42.2751 42.2734 31.863C42.2734 26.9423 40.3795 22.4534 37.2813 19.0857L40.8352 15.5318C40.962 15.7101 41.1561 15.8369 41.3938 15.8607L48.8344 16.6768C48.8621 16.6808 48.8938 16.6808 48.9215 16.6808C49.3217 16.6808 49.6624 16.3797 49.71 15.9756C49.7575 15.5397 49.4445 15.1475 49.0087 15.1L42.0317 14.3353L44.0761 12.2909C44.1077 12.2989 44.1434 12.3068 44.1791 12.3107L51.6196 13.1269C51.6474 13.1309 51.6791 13.1309 51.7068 13.1309C52.107 13.1309 52.4477 12.8298 52.4952 12.4256C52.5428 11.9898 52.2298 11.5976 51.794 11.5501L45.5063 10.8607L49.3257 7.04133C49.6347 6.7323 49.6347 6.22913 49.3257 5.9201C49.0166 5.61107 48.5134 5.61107 48.2044 5.9201L44.29 9.83848L42.2258 4.50568C42.0673 4.0976 41.6077 3.89554 41.1997 4.05401C40.7916 4.21249 40.5895 4.67208 40.748 5.08016L43.042 10.9993C43.0499 11.0231 43.0657 11.039 43.0776 11.0588L41.3898 12.7466L39.3177 7.23151C39.1632 6.82343 38.7076 6.61344 38.2955 6.76796C37.8875 6.92248 37.6775 7.3781 37.832 7.79014L40.122 13.8916C40.1339 13.9193 40.1497 13.9391 40.1656 13.9668L36.164 17.9684C32.8003 14.8702 28.3114 12.9764 23.3867 12.9764C12.9707 12.9764 4.5 21.451 4.5 31.863C4.5 42.2751 12.9746 50.7497 23.3867 50.7497ZM23.3867 14.5572C27.8716 14.5572 31.9643 16.2727 35.0428 19.0857L31.3027 22.8258C29.187 20.9676 26.4176 19.8385 23.3867 19.8385C16.7583 19.8385 11.3621 25.2307 11.3621 31.8591C11.3621 38.4874 16.7583 43.8836 23.3867 43.8836C30.015 43.8836 35.4112 38.4914 35.4112 31.8591C35.4112 28.8282 34.2821 26.0588 32.4239 23.9431L36.164 20.203C38.973 23.2814 40.6886 27.3741 40.6886 31.8591C40.6886 41.3995 32.9271 49.161 23.3867 49.161C13.8463 49.161 6.08479 41.3995 6.08479 31.8591C6.08479 22.3226 13.8463 14.5572 23.3867 14.5572ZM22.828 32.4217C22.9826 32.5762 23.1846 32.6554 23.3867 32.6554C23.5887 32.6554 23.7908 32.5762 23.9453 32.4217L26.3859 29.9811C26.7306 30.5279 26.9326 31.1697 26.9326 31.863C26.9326 33.8163 25.3439 35.409 23.3867 35.409C21.4334 35.409 19.8407 33.8202 19.8407 31.863C19.8407 29.9098 21.4295 28.3171 23.3867 28.3171C24.0761 28.3171 24.7219 28.5191 25.2686 28.8599L22.828 31.3004C22.519 31.6095 22.519 32.1126 22.828 32.4217ZM26.4057 27.7228C25.5578 27.1047 24.5158 26.7323 23.3867 26.7323C20.5578 26.7323 18.2559 29.0342 18.2559 31.863C18.2559 34.6919 20.5578 36.9938 23.3867 36.9938C26.2155 36.9938 28.5174 34.6919 28.5174 31.863C28.5174 30.7339 28.145 29.6919 27.5269 28.844L31.3027 25.0683C32.8716 26.8947 33.8265 29.268 33.8265 31.863C33.8265 37.6198 29.1434 42.3028 23.3867 42.3028C17.6299 42.3028 12.9469 37.6198 12.9469 31.863C12.9469 26.1063 17.6299 21.4272 23.3867 21.4272C25.9778 21.4272 28.351 22.3781 30.1814 23.951L26.4057 27.7228Z" fill="#AD475C"/>
</g>
<defs>
<clipPath id="clip0_48_521">
<rect width="55" height="55" fill="white" transform="translate(0.5)"/>
</clipPath>
</defs>
</svg>
