<svg width="56" height="55" viewBox="0 0 56 55" fill="none" xmlns="http://www.w3.org/2000/svg">
<g clip-path="url(#clip0_48_532)">
<path d="M34.9035 7H22.1021C18.7946 7 16.107 9.68765 16.107 12.9951V14.3812H9.23857C6.62418 14.3812 4.5 16.5053 4.5 19.1197V42.5704C4.5 45.1848 6.62418 47.3146 9.23857 47.3146H18.034H47.7614C50.3758 47.3146 52.5 45.1848 52.5 42.5704V19.1197C52.5 16.5053 50.3702 14.3812 47.7614 14.3812H40.893V12.9951C40.8986 9.68765 38.211 7 34.9035 7ZM23.9445 45.2411H22.5866V15.8405H23.9445V45.2411ZM32.0976 45.2411H24.9193V15.8405H32.0976V45.2411ZM34.4246 45.2411H33.2583H33.0667V15.8405H33.2583H34.4246V45.2411ZM35.1853 14.3812H21.8316V12.9951C21.8316 12.8429 21.9556 12.7134 22.1077 12.7134H34.9092C35.0613 12.7134 35.1853 12.8373 35.1853 12.9951V14.3812ZM47.767 16.325C49.3052 16.325 50.5617 17.5759 50.5617 19.1197V42.5704C50.5617 44.1086 49.3109 45.3651 47.767 45.3651H35.3994V16.325H36.1601C36.6953 16.325 37.1348 15.8912 37.1348 15.3503V12.9894C37.1348 11.7611 36.1375 10.7638 34.9092 10.7638H22.1077C20.8794 10.7638 19.8821 11.7611 19.8821 12.9894V15.3503C19.8821 15.8856 20.3159 16.325 20.8568 16.325H21.6175V45.3651H9.24985C7.71164 45.3651 6.45514 44.1086 6.45514 42.5704V19.1197C6.45514 17.5815 7.70601 16.325 9.24985 16.325H17.093C17.6283 16.325 18.0678 15.8912 18.0678 15.3503V12.9894C18.0678 10.7582 19.8821 8.93826 22.1133 8.93826H34.9148C37.1461 8.93826 38.9604 10.7526 38.9604 12.9894V15.3503C38.9604 15.8856 39.3942 16.325 39.9351 16.325H47.767Z" fill="#AD475C"/>
</g>
<defs>
<clipPath id="clip0_48_532">
<rect width="55" height="55" fill="white" transform="translate(0.5)"/>
</clipPath>
</defs>
</svg>
