<svg width="56" height="55" viewBox="0 0 56 55" fill="none" xmlns="http://www.w3.org/2000/svg">
<g clip-path="url(#clip0_48_553)">
<path d="M27.2942 25.3712C27.5993 25.2492 27.8012 24.9488 27.8012 24.6202V4.81204C27.8012 4.36612 27.4398 4 26.9892 4C21.61 4 16.5171 6.06531 12.6494 9.81102C12.4945 9.96123 12.4053 10.1631 12.4006 10.379C12.3959 10.5949 12.4804 10.8014 12.6306 10.9563L26.4071 25.1788C26.562 25.3384 26.7732 25.4275 26.9892 25.4275C27.0924 25.4322 27.1957 25.4135 27.2942 25.3712ZM26.1771 22.6206L14.3673 10.4306C17.6483 7.50633 21.7883 5.83061 26.1771 5.64286V22.6206Z" fill="#AD475C"/>
<path d="M26.9229 28.8541C26.9463 28.6194 26.8618 28.3847 26.6976 28.2157L12.921 13.9933C12.7708 13.8384 12.569 13.7492 12.3531 13.7492C12.1372 13.7539 11.9306 13.829 11.7757 13.9792C7.72959 17.8986 5.5 23.1604 5.5 28.7837C5.5 33.0786 6.8143 37.2045 9.30206 40.7014C9.46165 40.9221 9.71041 41.0441 9.96388 41.0441C10.1235 41.0441 10.2878 40.9972 10.4333 40.8939L26.5896 29.4455C26.7773 29.3047 26.8994 29.0935 26.9229 28.8541ZM10.1657 39.0914C8.17082 36.017 7.11939 32.4684 7.11939 28.7837C7.11939 23.8692 8.96408 19.2645 12.3296 15.7206L24.8716 28.671L10.1657 39.0914Z" fill="#AD475C"/>
<path d="M51.3169 28.1406C51.2747 27.8027 51.2183 27.4694 51.162 27.1408C51.0306 26.4133 50.8616 25.7045 50.6645 25.0333C50.58 24.7376 50.4861 24.4418 50.3875 24.1508C50.1716 23.5218 49.9228 22.8929 49.6506 22.2874C49.5332 22.0198 49.4065 21.7616 49.2751 21.4988C48.9935 20.9355 48.6789 20.3723 48.341 19.8278C48.1908 19.5931 48.0453 19.3537 47.8857 19.1284C47.5008 18.5604 47.083 18.0065 46.6418 17.4808C46.4681 17.2696 46.2898 17.0631 46.1067 16.8612C45.703 16.4153 45.2665 15.9741 44.8112 15.5516C44.614 15.3639 44.4075 15.1855 44.201 15.0072C43.7316 14.6035 43.2434 14.2186 42.7459 13.8618C42.5206 13.6976 42.2906 13.538 42.0606 13.3878C41.5208 13.0263 40.9716 12.6978 40.4318 12.4114C40.1783 12.2753 39.9249 12.1439 39.6667 12.0172C39.0096 11.6933 38.3243 11.4069 37.6343 11.1582C37.3479 11.0549 37.0616 10.9563 36.7706 10.8625C36.0993 10.6512 35.4 10.4729 34.6959 10.3274C34.372 10.2616 34.0434 10.2053 33.7149 10.1537C32.9451 10.0363 32.1471 9.96124 31.3351 9.92838C31.0534 9.91899 30.7765 9.90491 30.4902 9.90491C29.8283 9.90491 29.2838 10.4447 29.2838 11.1112V30.2951L13.6392 41.3867C13.381 41.5698 13.1979 41.8514 13.1463 42.1706C13.0947 42.4851 13.1651 42.7996 13.3528 43.0671L13.4326 43.1704C13.7706 43.6445 14.1508 44.1186 14.5873 44.6255C14.7657 44.832 14.9441 45.0386 15.1318 45.2357C15.5355 45.6722 15.9814 46.1041 16.4461 46.5265C16.6479 46.7096 16.8545 46.888 17.0657 47.0616C17.643 47.5404 18.1828 47.9488 18.7132 48.3102C18.9057 48.4416 19.1075 48.5637 19.3047 48.6857L19.422 48.7561C19.9665 49.0941 20.5251 49.4086 21.093 49.6949C21.3512 49.8216 21.6094 49.9484 21.8722 50.0657C22.4449 50.3239 23.0598 50.5633 23.7451 50.798C24.0361 50.8965 24.3271 50.9904 24.6228 51.0749C25.3551 51.2908 26.0404 51.4551 26.7257 51.5818C27.059 51.6429 27.3922 51.6898 27.7255 51.7367C28.6361 51.8588 29.5467 51.9198 30.4151 51.9245C30.4292 51.9245 30.4808 51.9245 30.4949 51.9245C30.8751 51.9245 31.2506 51.9151 31.6214 51.8916C32.6165 51.84 33.6163 51.7133 34.602 51.5161C35.0949 51.4176 35.5971 51.2955 36.1275 51.15C37.653 50.7229 39.1269 50.1314 40.4975 49.3851C41.8728 48.6388 43.1777 47.7235 44.37 46.6674C45.0412 46.0759 45.6702 45.4469 46.2475 44.7898C47.3036 43.5929 48.219 42.288 48.9653 40.9174C49.7116 39.5467 50.303 38.0775 50.7302 36.5473C50.8804 36.0076 50.9977 35.51 51.0963 35.0218C51.2887 34.0408 51.4155 33.041 51.4718 32.0412C51.4906 31.6657 51.5 31.2902 51.5 30.9147V30.8584C51.5 29.9712 51.439 29.0606 51.3169 28.1406ZM49.8571 31.9474C49.8055 32.8674 49.6882 33.792 49.5098 34.698C49.4206 35.1486 49.3079 35.6086 49.1718 36.1061C48.7775 37.519 48.2283 38.8755 47.543 40.1382C46.853 41.4055 46.0081 42.6071 45.0318 43.7149C44.5014 44.3204 43.9147 44.9025 43.2951 45.4469C42.192 46.4186 40.9904 47.2635 39.723 47.9535C38.4557 48.6435 37.0991 49.188 35.691 49.5822C35.1981 49.7184 34.7381 49.831 34.2828 49.9202C33.3769 50.1033 32.4522 50.2159 31.5322 50.2676C31.1896 50.2863 30.8422 50.3004 30.4949 50.2957C30.4808 50.2957 30.4526 50.2957 30.4385 50.2957C29.6218 50.2957 28.7816 50.2347 27.9414 50.122C27.6316 50.0798 27.3218 50.0376 27.0167 49.9812C26.3877 49.8639 25.7541 49.7137 25.0781 49.5118C24.8059 49.432 24.5383 49.3429 24.2708 49.2537C23.6324 49.0378 23.0691 48.8171 22.5434 48.5778C22.2993 48.4698 22.06 48.3524 21.8253 48.2351C21.309 47.9722 20.7879 47.6812 20.2857 47.3667L20.1683 47.2916C19.99 47.179 19.8069 47.071 19.6332 46.9537C19.1498 46.6251 18.6522 46.2496 18.1124 45.8037C17.92 45.6441 17.7275 45.4751 17.5398 45.3061C17.1079 44.9165 16.6996 44.5176 16.324 44.1139C16.1504 43.9308 15.9861 43.7384 15.8218 43.5506C15.4932 43.1704 15.2022 42.809 14.9347 42.4476L30.5746 31.3606C30.7906 31.2104 30.9173 30.9616 30.9173 30.6988V11.5196C31.0394 11.5243 31.1567 11.529 31.2787 11.5337C32.0298 11.5618 32.7667 11.6323 33.4708 11.7402C33.7759 11.7872 34.0763 11.8435 34.3767 11.9045C35.0245 12.0359 35.6675 12.2049 36.2918 12.3974C36.5594 12.4818 36.8222 12.571 37.0851 12.6696C37.7234 12.8996 38.3524 13.1672 38.9626 13.4629C39.202 13.5802 39.4367 13.6976 39.6714 13.8243C40.1642 14.0918 40.6712 14.3923 41.1734 14.7255C41.3847 14.8663 41.5959 15.0118 41.8024 15.1621C42.2624 15.4953 42.713 15.8474 43.1449 16.2229C43.3373 16.3871 43.5251 16.5561 43.7081 16.7251C44.1259 17.1147 44.5296 17.5231 44.9004 17.9361C45.0693 18.1239 45.2336 18.3163 45.3979 18.5088C45.8016 18.9969 46.1912 19.5086 46.5479 20.0343C46.6934 20.2455 46.8296 20.4661 46.9657 20.682C47.2755 21.1843 47.5665 21.7053 47.8293 22.2216C47.9467 22.461 48.064 22.7004 48.172 22.9492C48.4255 23.5125 48.6555 24.0898 48.8526 24.6718C48.9418 24.9394 49.031 25.2069 49.1108 25.4839C49.2938 26.1035 49.4487 26.7559 49.5708 27.4271C49.6271 27.7323 49.674 28.042 49.7163 28.3518C49.8289 29.2014 49.8853 30.0463 49.89 30.849V30.9053C49.8853 31.2527 49.8712 31.6047 49.8571 31.9474Z" fill="#AD475C"/>
</g>
<defs>
<clipPath id="clip0_48_553">
<rect width="55" height="55" fill="white" transform="translate(0.5)"/>
</clipPath>
</defs>
</svg>
