<svg width="56" height="55" viewBox="0 0 56 55" fill="none" xmlns="http://www.w3.org/2000/svg">
<g clip-path="url(#clip0_48_566)">
<path d="M40.0916 8L35.9539 12.1377C35.7464 12.1086 35.5389 12.0879 35.3314 12.0754C33.8498 11.4736 31.2103 11.0503 28.1185 13.4325L28.0479 13.4947L27.0312 14.5157C23.2089 11.9219 20.171 13.5197 19.3202 14.0841L15.5104 10.2743L3.5 22.2805L8.05268 26.8332C8.09003 28.8709 8.81215 30.9626 10.2232 33.0791C10.8042 33.9507 11.4807 34.7516 12.2152 35.4945C13.1532 36.4449 14.1035 37.3828 15.0498 38.329C14.0247 39.8231 14.4646 41.0557 15.5312 42.1679C16.6393 43.3216 17.6602 43.4586 19.1625 43.0228C19.175 43.0187 19.1916 43.0228 19.1999 43.0353C20.2748 44.6497 21.2708 45.4299 22.3415 45.517C22.7856 45.9487 23.2255 46.3844 23.6737 46.816C24.9976 48.0943 27.0187 48.3806 28.6165 47.4634C29.3054 47.0692 29.4258 46.7413 29.7785 46.1811C32.4803 48.447 34.2856 48.4885 36.4063 45.3095C36.4146 45.2971 36.427 45.2929 36.4436 45.2971C37.946 45.7328 38.9669 45.5959 40.075 44.4422C41.2038 43.2677 41.6313 41.9562 40.3696 40.346C40.3613 40.3335 40.0335 39.9102 40.0501 39.9102C40.9506 39.9393 41.6603 39.3666 42.0546 38.8603C43.1004 37.5073 43.034 36.088 41.9135 34.6935C42.4032 34.1997 42.9012 33.7141 43.3868 33.2202C44.1213 32.4774 44.7978 31.6723 45.3788 30.8049C46.7899 28.6925 47.512 26.6008 47.5493 24.559L52.0979 20.0063L40.0916 8ZM12.9415 33.7515C11.5595 32.2948 10.5261 30.6804 10.0696 28.8543C9.97003 28.4476 9.89533 28.0285 9.85798 27.601C9.82478 27.2524 9.81233 26.8913 9.82478 26.5261L5.20985 21.9112L15.1328 11.9883L18.3159 15.1714L18.5234 15.383L18.511 15.4163L20.0465 15.5449L20.1461 15.2959C20.752 14.8809 23.267 13.4864 26.6286 16.0471L31.0734 20.5126C31.2975 20.7367 31.4178 21.0355 31.4178 21.3551C31.4178 21.6746 31.2933 21.9734 31.0692 22.1975L30.7746 22.4922C30.3097 22.957 29.5544 22.9529 29.0896 22.4881L24.5452 17.9229L23.4413 18.6948L24.6697 20.1349L25.201 20.6703C24.678 21.1932 24.1551 21.7161 23.6322 22.239C23.5036 22.3677 23.4289 22.5088 23.3915 22.6541C23.3666 22.6831 23.3417 22.708 23.3127 22.7329C20.2582 25.7915 17.1912 28.8419 14.145 31.9088C13.5391 32.5147 13.1366 33.1331 12.9415 33.7515ZM27.6744 46.1313C27.3217 46.4633 26.9606 46.6708 26.4335 46.6293C25.7073 46.5712 25.2051 46.0192 24.8523 45.6706C24.6365 45.4589 24.4249 45.2431 24.2091 45.0315C24.7112 44.7617 25.2425 44.3841 25.8193 43.9026C26.1721 44.4629 26.2883 44.7908 26.9814 45.185C27.2926 45.3635 27.6163 45.4921 27.9525 45.5834C27.8944 45.8117 27.8031 46.0109 27.6744 46.1313ZM34.2233 45.517C33.5427 46.318 32.7625 46.3886 31.7664 45.4631C31.6129 45.3178 31.4593 45.1726 31.3058 45.0273C31.5257 44.8862 31.7332 44.7244 31.9241 44.5376C32.4969 43.9856 33.0571 43.4295 33.6257 42.8776C33.6838 42.9398 33.746 42.9979 33.8083 43.0602C34.7462 43.9981 34.8707 44.7576 34.2233 45.517ZM38.9752 43.0353C38.2863 43.9773 37.2321 43.9981 36.2901 43.056C35.8211 42.5912 35.3563 42.1181 34.8873 41.6533C35.6592 40.898 36.4353 40.1468 37.2031 39.3915C37.6389 39.8272 38.0746 40.2588 38.5104 40.6946C39.3445 41.5371 39.4898 42.3298 38.9752 43.0353ZM40.8967 37.47C40.5481 38.3456 39.5064 38.7607 38.6805 38.3041C38.5975 38.2585 38.5228 38.2087 38.4481 38.1547C39.191 37.416 39.9297 36.6731 40.6684 35.9303C40.988 36.3577 41.154 36.8308 40.8967 37.47ZM45.7689 24.2519C45.7814 24.6171 45.7689 24.974 45.7357 25.3267C45.6942 25.7542 45.6237 26.1734 45.5241 26.5801C45.0676 28.4144 44.0259 30.033 42.6356 31.4938C40.7514 33.4776 38.776 35.3742 36.8379 37.3081C34.8085 39.3375 32.7832 41.3794 30.7372 43.3922C30.3844 43.7366 29.8823 44.2928 29.156 44.3509C28.629 44.3924 28.2679 44.189 27.9193 43.8528C27.6039 43.554 27.5001 42.7987 27.6246 42.3298C27.7574 41.8193 28.2098 41.3586 28.604 40.9561C29.5295 40.0098 30.4716 39.0761 31.4095 38.1381C31.866 37.6816 32.3184 37.221 32.7666 36.7603C33.2439 36.2664 34.6383 35.2248 33.8581 34.4943C33.1401 33.822 32.1109 35.1168 31.6793 35.5526C31.2228 36.0091 30.7663 36.4656 30.3056 36.918C28.1558 39.018 26.0351 41.147 23.8356 43.1888C22.8395 44.1143 22.0593 44.0437 21.3787 43.2428C20.7313 42.4833 20.8558 41.7238 21.7937 40.7859C24.2298 38.3456 26.6659 35.9095 29.1021 33.4734C29.4424 33.1331 29.7412 32.909 29.8034 32.3861C29.8491 32.0001 29.708 31.6598 29.3096 31.5976C28.6372 31.4979 28.3467 31.7511 27.9151 32.1827C25.0474 35.0504 22.1838 37.9223 19.3119 40.7818C18.3699 41.7197 17.3157 41.6989 16.6268 40.761C16.1122 40.0596 16.2533 39.2628 17.0916 38.4203C20.0009 35.4987 22.9142 32.5853 25.8359 29.676C26.3132 29.2029 26.6867 28.6717 26.1015 28.1239C25.5454 27.601 25.064 28.0658 24.6365 28.4891C22.3955 30.7385 20.1503 32.9878 17.8967 35.2248C17.5979 35.5236 17.2825 35.8265 16.9173 36.0299C16.0915 36.4822 15.0498 36.0714 14.7012 35.1957C14.3401 34.2993 14.8049 33.7307 15.3735 33.1622C19.1003 29.4478 22.8271 25.7334 26.5248 21.9859L28.0521 23.5214C28.5708 24.0443 29.2556 24.3058 29.9404 24.3058C30.621 24.3058 31.3016 24.0485 31.8204 23.5297L32.1151 23.2392C32.6172 22.7371 32.8953 22.0689 32.8994 21.3592C32.8994 20.6911 32.6504 20.0644 32.2064 19.5747L28.8199 16.155L28.1558 15.4868L29.0606 14.5779C30.4592 13.5114 31.7083 13.1378 32.7376 13.088C34.6217 12.9179 36.2901 13.9015 36.2901 13.9015L37.2902 12.9013L40.4692 9.71814L50.3922 19.6411L45.7689 24.2519Z" fill="#AD475C"/>
</g>
<defs>
<clipPath id="clip0_48_566">
<rect width="55" height="55" fill="white" transform="translate(0.5)"/>
</clipPath>
</defs>
</svg>
