<svg width="56" height="55" viewBox="0 0 56 55" fill="none" xmlns="http://www.w3.org/2000/svg">
<g clip-path="url(#clip0_48_577)">
<path d="M6.5 41.6298C6.5 45.0525 7.30987 47.5014 8.97298 49.1066C11.123 51.1795 14.4637 51.6133 18.4407 51.6133C19.8194 51.6133 21.2704 51.5603 22.7744 51.5073C24.4568 51.4494 26.1971 51.3868 28 51.3868C29.398 51.3868 30.767 51.4157 32.0927 51.4398C38.3981 51.5651 43.8454 51.6712 46.9306 48.6487C48.6564 46.9518 49.5 44.4306 49.5 40.9308C49.5 32.5815 44.313 21.5085 35.9299 18.1775C35.8335 18.1389 35.7274 18.1196 35.6214 18.1196H20.3786C20.2725 18.1196 20.1665 18.1389 20.0701 18.1775C11.9521 21.3977 6.5 32.9045 6.5 41.6298ZM20.5425 19.7827H35.4575C42.2932 22.598 47.8321 32.0416 47.8321 40.9308C47.8321 43.9582 47.1572 46.0937 45.764 47.458C43.1802 49.9936 38.0558 49.8924 32.1264 49.7767C30.7959 49.7526 29.4173 49.7237 28.0048 49.7237C26.173 49.7237 24.4183 49.7863 22.7214 49.849C17.25 50.0418 12.521 50.2154 10.1347 47.9111C8.81389 46.6385 8.17274 44.5849 8.17274 41.6347C8.16792 31.5836 14.536 22.275 20.5425 19.7827Z" fill="#AD475C"/>
<path d="M21.3854 16.6059H34.4397C34.6711 16.6059 34.888 16.5095 35.047 16.3408C37.4766 13.7473 38.9277 8.44944 38.9277 4.83397C38.9277 4.37601 38.5565 4 38.0937 4H17.7265C17.2686 4 16.8926 4.37119 16.8926 4.83397C16.8926 8.45426 18.3436 13.7473 20.7732 16.3456C20.9323 16.5095 21.154 16.6059 21.3854 16.6059ZM37.2356 5.66311C37.0476 8.71457 35.8762 12.7784 34.0636 14.938H21.7566C19.944 12.7784 18.7726 8.71457 18.5846 5.66311H37.2356Z" fill="#AD475C"/>
<path d="M30.75 30.2188L32.4375 31.9062L30.75 33.5938" stroke="#AD475C" stroke-width="1.5" stroke-linecap="round" stroke-linejoin="round"/>
<path d="M31.875 31.9062H24.5625C23.8173 31.9085 23.1032 32.2055 22.5762 32.7325C22.0493 33.2594 21.7522 33.9735 21.75 34.7188V35.2812M26.25 39.7812L24.5625 38.0938L26.25 36.4062" stroke="#AD475C" stroke-width="1.5" stroke-linecap="round" stroke-linejoin="round"/>
<path d="M25.125 38.0938H32.4375C33.1827 38.0915 33.8968 37.7945 34.4238 37.2675C34.9507 36.7406 35.2478 36.0265 35.25 35.2812V34.7188" stroke="#AD475C" stroke-width="1.5" stroke-linecap="round" stroke-linejoin="round"/>
</g>
<defs>
<clipPath id="clip0_48_577">
<rect width="55" height="55" fill="white" transform="translate(0.5)"/>
</clipPath>
</defs>
</svg>
